<svg width="95" height="32" viewBox="0 0 95 32" fill="none" xmlns="http://www.w3.org/2000/svg">
<g clip-path="url(#clip0_2_2246)">
<path fill-rule="evenodd" clip-rule="evenodd" d="M94.3353 18.236V1.41155H89.4971L87.107 5.31562H85.3045V1.41155H80.4506L77.3048 6.54876C77.1736 6.47005 77.0424 6.39528 76.9112 6.32313C76.3117 5.99123 75.6715 5.73673 75.0064 5.5675C73.5463 5.2028 72.0141 5.23429 70.5698 5.65933C69.801 5.89284 69.0716 6.24048 68.4065 6.69044C67.9356 7.00398 67.4961 7.3608 67.0947 7.75829C66.7024 8.1466 66.3508 8.57426 66.0452 9.03472V9.04391L66.0045 9.10687V9.11475L65.9678 9.17116L65.9586 9.18427C65.8956 9.28397 65.8353 9.38499 65.7776 9.48731L65.2607 10.3308C65.2305 10.2574 65.1977 10.1852 65.1636 10.1144C64.7464 9.23019 64.1758 8.42602 63.4805 7.73993C61.1716 5.42844 57.7202 4.69249 54.6688 5.86004V0H49.8149L46.5602 5.31562H45.1356L44.7801 5.90333C44.4495 5.76952 44.1097 5.65933 43.7647 5.57275C41.5031 4.9916 39.1011 5.39696 37.1569 6.69044C36.6112 7.04727 36.1113 7.46837 35.6666 7.94589C35.2272 8.41815 34.8454 8.94027 34.5253 9.50043L34.0753 10.2324C34.0478 10.1695 34.0189 10.1065 33.9888 10.0435C33.5755 9.19083 33.0219 8.41422 32.349 7.7478C30.0453 5.435 26.5965 4.69512 23.5464 5.85873V5.31562H18.6926L17.1525 7.83438L17.0711 7.75304C16.6723 7.35555 16.2342 7.00004 15.7645 6.69044C14.4238 5.78527 12.8417 5.30644 11.2242 5.31562C9.02292 5.28283 6.90428 6.16046 5.37072 7.73993C5.02833 8.07969 4.7148 8.44701 4.43275 8.83795C4.16382 9.21051 3.92768 9.60538 3.72697 10.0186L0.813348 14.7767L0.756938 14.8816L0.671668 15.064L0.603452 15.2175L0.595581 15.2424L0.524741 15.4366L0.464396 15.5992L0.33321 16.002L0.285984 16.1699V16.1974L0.241381 16.368L0.223015 16.3981L0.183659 16.57V16.5936L0.148239 16.7668L0.131185 16.7917C0.108884 16.9229 0.0892059 17.041 0.0695281 17.1669V17.1853L0.0459148 17.3637V17.3873L0.0275489 17.567V17.5919L0.0104948 17.7756V17.8005L0 17.9829V18.8408L0.0104948 19.0219V19.0468L0.0249252 19.2278V19.2527L0.0432911 19.4325V19.4561L0.0669044 19.6345V19.6594C0.0852704 19.7906 0.10626 19.9087 0.128561 20.0346L0.136433 20.0582L0.171853 20.2314V20.2602L0.211208 20.4321L0.219079 20.4557L0.26237 20.6249V20.6499L0.309597 20.8178C0.33321 20.8899 0.356824 20.9634 0.377813 21.0369C0.418481 21.1549 0.457836 21.2704 0.501127 21.3884L0.514246 21.412L0.577215 21.5734L0.586398 21.597L0.654614 21.7571L0.666421 21.7807L0.738573 21.9394C0.802853 22.0706 0.869758 22.1939 0.931415 22.3212L1.01669 22.4746L1.02849 22.4983C1.09277 22.6071 1.15968 22.7108 1.22265 22.8183L1.23839 22.838L1.33678 22.9863L1.34858 23.0099L1.4496 23.1555L1.46534 23.1765L1.5716 23.3195L1.97302 23.818L2.09503 23.9557C2.29443 24.1551 2.47546 24.3493 2.68405 24.5461L2.70373 24.5631L2.83491 24.6851L2.85197 24.7009C3.0107 24.832 3.16943 24.9632 3.3321 25.0944L3.47641 25.2007L3.49608 25.2125L3.6417 25.3135L3.66269 25.3305L3.80962 25.4276L3.83323 25.4394L3.98278 25.5339L4.00246 25.5496L4.15332 25.6388L4.17825 25.6506L4.33042 25.7359L4.50883 25.829L4.52982 25.8409L4.68593 25.9183C4.75546 25.9484 4.82761 25.9812 4.89583 26.0153L5.05588 26.0835L5.07949 26.0914L5.24085 26.1557L5.26577 26.1675C5.51371 26.2593 5.74985 26.3354 6.00566 26.4076H6.02927L6.19981 26.4509L6.22342 26.46L6.39528 26.4994H6.42414L6.5973 26.5348L6.62223 26.5427C6.75341 26.565 6.87148 26.5847 6.99873 26.6044H7.02365L7.20207 26.628H7.22568L7.40671 26.6463H7.43164L7.61399 26.6608H7.6376L7.82257 26.6713H8.71857L8.84975 26.6621H8.86549L8.99668 26.6516H9.01636L9.14754 26.6385H9.16722L9.2984 26.6227H9.31808L9.44927 26.6044H9.46501L9.5962 26.5834H9.61587C9.80872 26.5493 9.99369 26.5112 10.1839 26.4666L10.2036 26.4587L10.3348 26.4259H10.3558L10.4869 26.3905H10.5066L10.6378 26.3538L10.6535 26.3459L10.7769 26.3066H10.7979L10.9212 26.2646L10.9369 26.2567L11.0589 26.2121H11.0786L11.2006 26.1662L11.2163 26.1583L11.4787 26.0508C11.6099 25.9852 11.7489 25.9196 11.8814 25.8592L11.9024 25.8514C11.9903 25.8054 12.0795 25.7569 12.1648 25.7123L12.2802 25.648L12.2934 25.6401L12.4075 25.5732L12.4232 25.5601L12.5374 25.4906L12.5544 25.4827L12.6672 25.4119L12.6843 25.404C12.7932 25.3319 12.8994 25.261 13.0057 25.1862L13.0175 25.1744C13.0831 25.1272 13.1566 25.0708 13.2222 25.0275L13.3114 24.9593L13.3232 24.9514L13.4097 24.8832L13.4189 24.8753L13.5121 24.794L13.5239 24.7822L13.6091 24.7114L13.621 24.7022L13.7049 24.6313L13.7167 24.6195L13.7994 24.5461L13.8112 24.5382L13.9843 24.3768L13.9935 24.365L14.0722 24.2889L14.084 24.2811C14.1693 24.1945 14.2533 24.1092 14.3372 24.0187L14.3451 24.0069L14.4317 23.9137L14.5038 23.8324L14.5156 23.8193L14.5878 23.7366L14.5957 23.7248L14.6652 23.6409L14.6783 23.6278L14.7465 23.5425L14.7544 23.5307L14.8226 23.4441L14.8344 23.4323L14.9013 23.3444L14.9748 23.2421L14.9827 23.2263L15.0456 23.1358L15.0587 23.124L15.1899 22.9272L15.1978 22.9115L15.2739 22.7947V32H20.1277L23.3706 26.6949C23.5753 26.6949 23.7773 26.6883 23.9806 26.6883L24.163 26.6778H24.1866L24.3676 26.6634H24.3926L24.571 26.645H24.5959L24.773 26.6214H24.7966L25.0013 26.5899L25.1744 26.5598L25.1994 26.5519L25.3712 26.5165H25.3948L25.5654 26.4771L25.5903 26.4679L25.7582 26.4246H25.7871L25.9537 26.3774C26.0849 26.3354 26.2056 26.2961 26.3315 26.2462L26.3603 26.2344L26.5217 26.1741L26.5466 26.1662L26.7067 26.1019L26.7303 26.094L26.889 26.0245L27.4518 25.7464C27.5607 25.6847 27.6656 25.6244 27.7745 25.5601C27.8362 25.5181 27.9057 25.4762 27.9674 25.4381L28.113 25.341L28.134 25.324L28.3032 25.2072C28.4698 25.0839 28.6233 24.9619 28.7847 24.832L28.9224 24.714L28.9394 24.6982L29.0706 24.5762L29.0903 24.5592C29.2976 24.365 29.4839 24.1656 29.6793 23.9688L29.8013 23.8311L30.2028 23.3326L30.3077 23.1896L30.3248 23.1686L30.4258 23.023L30.4376 22.9994L30.5347 22.8511L30.5661 22.8262L30.6593 22.6767L30.6724 22.6531L30.7511 22.5219L31.2024 21.7859L31.2575 21.904L31.2654 21.9171L31.3139 22.0181V22.0339L31.3651 22.1362L31.3729 22.148C31.411 22.2201 31.4477 22.2923 31.4871 22.3644L31.4949 22.3776L31.5513 22.476L31.5592 22.4891L31.6156 22.5862L31.6235 22.6032C31.6865 22.7082 31.7547 22.8105 31.8177 22.9141L31.8255 22.9299C31.916 23.061 32.0066 23.2001 32.1023 23.3326L32.1154 23.3444L32.1889 23.4454L32.2571 23.532L32.2689 23.5438L32.3385 23.6304L32.3463 23.6422L32.4159 23.7275L32.4277 23.7432L32.4998 23.8272L32.5798 23.9177L32.6651 24.0108L32.673 24.0226C32.7858 24.142 32.8986 24.2575 33.0167 24.3729L33.0285 24.3808L33.1072 24.4555L33.1164 24.4673L33.2082 24.5539L33.2909 24.6274L33.3027 24.6353L33.3853 24.7074L33.3971 24.7192L33.4824 24.7901L33.4942 24.7979L33.5795 24.8675L33.5913 24.8753L33.6779 24.9435L33.6897 24.9554L33.7776 25.0236C33.9153 25.1141 34.0517 25.219 34.1895 25.3122L34.2013 25.324L34.3141 25.3988L34.3312 25.4066L34.4453 25.4788L34.461 25.4906L34.5765 25.5601L34.5922 25.568L34.7077 25.6362L34.7247 25.6441C34.8559 25.7149 34.9779 25.7753 35.1078 25.8474L35.1235 25.8605L35.2429 25.9183H35.2586L35.378 25.9734L35.399 25.9865L35.5184 26.0389H35.5341C35.622 26.077 35.7086 26.1124 35.7965 26.1478L35.8122 26.1557L35.9342 26.2016L35.9513 26.2095L36.0746 26.2541H36.0943L36.2176 26.2948L36.2386 26.3039L36.3632 26.3433L36.5049 26.384H36.5246L36.6558 26.4181L36.6768 26.4259C36.9168 26.4876 37.1503 26.5374 37.3956 26.5794H37.4114L37.5426 26.6004H37.5622L37.6934 26.6175H37.7105L37.8417 26.6332H37.8614L37.9925 26.6463H38.0135L38.1447 26.6581H38.1749L38.3061 26.666H55.1188L55.3011 26.6555H55.326L55.5071 26.6411H55.5307L55.7091 26.6227H55.734L55.9111 26.5991H55.936L56.1118 26.5729L56.1394 26.5637L56.3375 26.5296L56.5106 26.4942H56.5343L56.7048 26.4548L56.7297 26.4456L56.8976 26.4023H56.9265L57.0944 26.3551C57.2256 26.3131 57.345 26.2738 57.4722 26.2239L57.4998 26.216L57.6624 26.1557L57.6861 26.1439L57.8474 26.0796L57.871 26.0717L58.0298 26.0035C58.2108 25.913 58.3892 25.8317 58.5689 25.7412L58.7421 25.6441L58.7657 25.6323L58.9166 25.5431L58.9402 25.5273L59.1094 25.4211L59.2563 25.324L59.2773 25.3069L59.4229 25.2059L59.4426 25.1941L59.5856 25.0879C59.7496 24.9567 59.9083 24.8334 60.0684 24.6943L60.0841 24.6786L60.2153 24.5566L60.3675 24.4136L60.3872 24.3965C60.4816 24.3047 60.5721 24.2142 60.664 24.121L60.6797 24.1L60.8227 23.9492L60.9447 23.8114L60.9618 23.7957C61.0929 23.6356 61.2241 23.4769 61.3553 23.3129L61.4603 23.1699L61.4734 23.1489L61.6111 22.9508L62.4048 21.6521L62.4402 21.7321V21.7479L62.4796 21.8345V21.8463L62.5215 21.9315L62.5294 21.9447L62.5714 22.0299V22.0417L62.6147 22.1257L62.6226 22.1388L62.6658 22.2228V22.2346L62.7104 22.3185L62.7183 22.3264L62.7655 22.4091L62.7734 22.4222L62.8206 22.5048V22.5166L62.8692 22.598L62.8771 22.6071L62.9269 22.6885V22.7003L63.0384 22.8748L63.0502 22.8905L63.1565 23.0492L63.1683 23.0702L63.2785 23.225L63.2942 23.246L63.407 23.3982L63.4241 23.4218C63.5067 23.5281 63.5894 23.6304 63.676 23.7353L63.6957 23.755L63.819 23.8967L63.836 23.9164L63.9672 24.0476L64.286 24.3703L64.4172 24.5015L64.4382 24.5172L64.5772 24.6405L64.5943 24.6576C64.7596 24.7966 64.9235 24.9199 65.0928 25.0577L65.2449 25.1679L65.2646 25.1797L65.4207 25.2873L65.4404 25.2991L65.5532 25.3738L65.565 25.3856L65.6792 25.4578L65.6949 25.4657L65.809 25.5352L65.8248 25.5431L65.9402 25.6113L65.956 25.6231L66.0714 25.6874C66.1593 25.732 66.2485 25.7818 66.3338 25.8264L66.3535 25.8343C66.4846 25.9012 66.6263 25.9655 66.7575 26.0258C66.8887 26.0862 67.0199 26.136 67.1616 26.1885H67.1773L67.3203 26.2397L67.4436 26.2816L67.4594 26.2895L67.5905 26.3289H67.6102L67.7414 26.3669H67.7624L67.8936 26.401L67.9093 26.4089L68.0405 26.4417C68.1887 26.4705 68.3357 26.506 68.4852 26.5361H68.5023L68.6335 26.5584H68.6531L68.7843 26.5794H68.8053L68.9365 26.5965H68.9522L69.0834 26.6122H69.1031L69.2343 26.6253H69.254L69.3851 26.6371H69.4048L69.536 26.645H70.533L70.6472 26.6371H70.6629L70.7757 26.628H70.7928L70.9056 26.6162H70.9213L71.0328 26.603H71.0499L71.1614 26.5886H71.1771L71.2886 26.5729H71.3044L71.4146 26.5545H71.4316L71.5418 26.5348H71.5576L71.6678 26.5125H71.6796C71.7596 26.4955 71.8383 26.4797 71.917 26.4614H71.9301L72.0377 26.4338H72.0574C72.2188 26.3918 72.3722 26.3485 72.5297 26.3026L72.5467 26.2948L72.6517 26.2593H72.6687L72.7737 26.2226H72.7894L72.8943 26.1832L72.9101 26.1754L73.015 26.1347H73.0308L73.1344 26.0927L73.1462 26.0849L73.2499 26.0416H73.2656L73.4873 25.9406L73.4991 25.9327L73.7182 25.8251H73.73L73.9478 25.711L73.9596 25.7031L74.0593 25.6467L74.0711 25.6388L74.1695 25.5824L74.1852 25.5745C74.4004 25.4434 74.6063 25.3122 74.811 25.1679L74.8267 25.16L74.9172 25.0957L74.9251 25.0879L75.1179 24.9409L75.1298 24.9331L75.2163 24.8648L75.2281 24.857L75.3134 24.7861L75.3265 24.7743L75.4105 24.7035L75.4223 24.6956L75.5049 24.6235L75.5128 24.6117L75.5955 24.5382L75.6886 24.4503L75.7004 24.4424C75.8552 24.2955 75.9929 24.1446 76.1425 23.9951L76.216 23.9124L76.2238 23.9006L76.2973 23.818L76.3091 23.8049L76.3799 23.7209L76.3878 23.7091L76.4587 23.6238L76.4705 23.6107L76.54 23.5241L76.5479 23.5123L76.6161 23.4244L76.6908 23.3234L76.7027 23.3116L76.7682 23.2211L76.8129 23.1529L77.6997 21.7007C77.7311 21.7702 77.7626 21.8397 77.7954 21.9092L77.8033 21.9224L77.8518 22.0234V22.0391L77.9017 22.1414L77.9096 22.1532L78.0237 22.3697L78.0329 22.3828L78.088 22.4812L78.0958 22.4983L78.1523 22.5953C78.2205 22.699 78.2834 22.8131 78.3543 22.9194L78.3622 22.9351C78.4291 23.0374 78.4933 23.1358 78.5668 23.2355L78.5786 23.2473L78.6521 23.3496L78.7268 23.4494L78.7951 23.5372L78.8069 23.549L78.8751 23.6343L78.883 23.6514L78.9538 23.7353L78.9656 23.7485L79.0364 23.8311L79.0443 23.8429L79.1178 23.9256C79.3277 24.1368 79.535 24.348 79.7462 24.5579L79.8275 24.6313L79.8406 24.6392L79.9233 24.7114L79.9351 24.7232L80.019 24.794L80.0321 24.8019L80.1174 24.8714L80.1292 24.8793L80.2158 24.9488L80.2276 24.9606L80.3155 25.0275C80.3811 25.0708 80.4467 25.1285 80.5188 25.1744L80.5267 25.1823L80.6172 25.2466L80.6343 25.2545L80.8507 25.4001L80.8665 25.4119L81.1065 25.5614L81.1223 25.5732L81.2377 25.6401L81.2535 25.648L81.3689 25.7136C81.4581 25.7569 81.5473 25.8067 81.6313 25.8527L81.651 25.8605C83.6437 26.8392 88.9357 26.8379 90.3853 26.2685C90.5729 26.1964 90.7369 26.0731 90.8562 25.9104L90.973 25.753L93.3041 21.9407C94.2119 20.3914 94.3405 20.4649 94.3405 18.2347H94.3353V18.236Z" fill="#4700B8"/>
<path fill-rule="evenodd" clip-rule="evenodd" d="M93.3061 2.44531V16.1017H90.0737V2.44531H93.3061ZM17.565 10.1315C16.9983 9.08853 16.185 8.20172 15.1945 7.5471C14.0217 6.75737 12.6377 6.3402 11.2235 6.34938C9.29644 6.31921 7.44148 7.08533 6.09683 8.46671C4.7102 9.80349 3.94015 11.6571 3.97163 13.5829C3.94146 15.51 4.70758 17.365 6.08896 18.7097C7.4323 20.0989 9.29119 20.8676 11.2235 20.8349C12.639 20.8401 14.0244 20.4164 15.1945 19.6201C16.1876 18.9733 17.0062 18.0918 17.5782 17.0541C18.7405 14.8948 18.7378 12.2947 17.5703 10.138L17.565 10.1315ZM35.3511 17.0384C35.9178 18.0813 36.7325 18.9681 37.7216 19.6227C38.9036 20.4229 40.2994 20.8453 41.7254 20.8375C43.1475 20.848 44.538 20.4242 45.7121 19.6227V20.8375H48.9603V6.34938H45.7121V7.5471C42.3761 5.34057 37.883 6.25624 35.6752 9.59228C34.892 10.7756 34.4748 12.1635 34.4735 13.5816C34.4656 14.7885 34.7687 15.9771 35.3511 17.0344V17.0384ZM44.5472 16.4152C42.9822 17.9737 40.449 17.9685 38.8905 16.4021C38.1454 15.6543 37.7269 14.6416 37.7256 13.5856C37.7085 12.523 38.1336 11.501 38.8997 10.7638C40.4529 9.20004 42.9795 9.19217 44.5433 10.7454C45.2989 11.4971 45.7239 12.519 45.7213 13.5856C45.7384 14.6482 45.3173 15.6727 44.5564 16.4152H44.5472ZM26.5145 17.588C24.304 17.588 22.5133 15.796 22.512 13.5856C22.495 12.523 22.92 11.501 23.6848 10.7638C24.4273 10.0029 25.4519 9.58179 26.5145 9.59884C27.5718 9.5831 28.5885 10.0081 29.3205 10.7716C30.8725 12.3314 30.8725 14.8528 29.3205 16.4126C28.5885 17.1761 27.5718 17.6011 26.5145 17.5854V17.588ZM19.2626 6.34938V26.136H22.512V19.6227C23.6914 20.4256 25.0872 20.8493 26.5145 20.8375C28.4364 20.8663 30.2848 20.0963 31.6176 18.7123C32.999 17.3676 33.7638 15.5127 33.7336 13.5856C33.7612 11.6624 32.995 9.81398 31.615 8.47458C30.2821 7.09058 28.4337 6.32052 26.5119 6.34938C25.0885 6.3402 23.694 6.75737 22.5094 7.5471V6.34938H19.2626ZM14.0362 16.4152C13.3041 17.1787 12.2875 17.6038 11.2301 17.588C9.01964 17.588 7.22896 15.796 7.22765 13.5856C7.20928 12.5243 7.6317 11.5023 8.3952 10.7638C9.1377 10.0029 10.1623 9.58179 11.2249 9.59884C12.2848 9.58179 13.3028 10.0068 14.0362 10.7716C15.5881 12.3314 15.5881 14.8528 14.0362 16.4126V16.4152ZM91.661 17.3886C92.6685 17.3886 93.4858 18.2059 93.4858 19.2134C93.4858 20.2209 92.6685 21.0382 91.661 21.0382C90.6535 21.0382 89.8363 20.2209 89.8363 19.2134C89.8363 18.2072 90.6496 17.3912 91.6545 17.3886H91.661Z" fill="#D9FE02"/>
<path fill-rule="evenodd" clip-rule="evenodd" d="M81.0224 13.5855C81.0145 14.7924 81.3176 15.9809 81.9 17.0383C82.4681 18.0799 83.2814 18.9667 84.2705 19.6226C85.446 20.4229 86.8365 20.8466 88.2573 20.8374H89.2936C88.6206 19.8588 88.6206 18.5666 89.2936 17.5879C88.7741 17.6076 88.2533 17.5971 87.7351 17.5578C86.8588 17.4555 86.0468 17.0514 85.4355 16.4152C84.6746 15.6726 84.2535 14.6481 84.2705 13.5855V9.59877H87.5357V6.34931H84.2705V2.44524H81.0224V13.5855ZM62.7483 18.7122C64.1336 17.3702 64.9037 15.5139 64.8735 13.5855C64.9024 11.6597 64.1336 9.80735 62.7483 8.46927C61.4102 7.08395 59.5579 6.31389 57.6321 6.34407C56.2087 6.34144 54.8168 6.75861 53.6296 7.54179V1.03369H50.3867V20.8427H53.6349V19.6279C54.8168 20.4242 56.2113 20.8479 57.6373 20.8427C59.5631 20.8728 61.4155 20.1028 62.7535 18.7175L62.7483 18.7122ZM57.6321 17.5879C55.4216 17.5879 53.6309 15.796 53.6296 13.5855C53.6126 12.5229 54.0376 11.501 54.8024 10.7637C56.357 9.20128 58.8849 9.19472 60.4473 10.7493C61.2016 11.4996 61.6254 12.5203 61.624 13.5855C61.6306 15.7894 59.8491 17.5814 57.6452 17.5879C57.6426 17.5879 57.6386 17.5879 57.636 17.5879H57.6321ZM65.7918 14.6678C65.9387 15.6792 66.3087 16.646 66.8741 17.4974C67.4211 18.3423 68.1361 19.0651 68.973 19.6226C70.1471 20.4242 71.5377 20.8479 72.9597 20.8374C74.1667 20.844 75.3552 20.5422 76.4125 19.9585C77.4594 19.3917 78.3528 18.5784 79.0139 17.5879L76.3063 15.7671C75.9416 16.3194 75.4496 16.7746 74.8711 17.096C72.9493 18.156 70.5328 17.4568 69.4729 15.5362C69.322 15.262 69.2026 14.9708 69.12 14.6678H80.1133C80.1658 14.3096 80.192 13.9476 80.1946 13.5855C80.213 10.9277 78.7568 8.47976 76.4125 7.22694C74.0643 5.95051 71.2032 6.07383 68.973 7.54704C68.0167 8.17672 67.2217 9.02418 66.655 10.0186C66.4031 10.4672 66.1985 10.9395 66.045 11.4301C65.8312 12.1267 65.7262 12.8522 65.7341 13.5802C65.7288 13.9423 65.7511 14.3044 65.7997 14.6625L65.7918 14.6678ZM76.2748 11.4354H69.5975C69.9596 10.8765 70.4515 10.4147 71.0326 10.0907C72.229 9.43741 73.6734 9.43479 74.8724 10.0828C75.451 10.399 75.9442 10.8516 76.3076 11.4026V11.4196L76.3247 11.4354H76.2748Z" fill="#FAFAFA"/>
</g>
<defs>
<clipPath id="clip0_2_2246">
<rect width="94.3405" height="32" fill="white"/>
</clipPath>
</defs>
</svg>
