<?xml version="1.0" encoding="utf-8"?>
<svg xmlns="http://www.w3.org/2000/svg" xmlns:xlink="http://www.w3.org/1999/xlink" x="0px" y="0px" viewBox="0 0 316 100" style="enable-background:new 0 0 316 100;">
  <path d="M192.324 15.4805C191.447 14.0404 190.198 12.8937 188.551 12.067C186.903 11.24 184.937 10.8135 182.679 10.8135C180.42 10.8135 178.826 11.1336 177.099 11.8002C175.425 12.4136 173.991 13.3738 172.768 14.547C171.546 15.7206 170.616 17.1341 169.952 18.7342C169.261 20.3076 168.942 22.0677 168.942 24.0146C168.942 25.9616 169.367 27.6149 170.244 29.0553C171.121 30.5221 172.37 31.6421 174.017 32.4955C175.664 33.3222 177.63 33.6955 179.889 33.6955C182.147 33.6955 183.742 33.3754 185.415 32.7088C187.089 32.0954 188.551 31.162 189.773 29.9884C190.995 28.7885 191.925 27.4016 192.589 25.8016C193.28 24.2015 193.599 22.4413 193.599 20.4944C193.599 18.5474 193.174 16.8941 192.297 15.454L192.324 15.4805ZM186.85 23.8281C186.558 24.7348 186.106 25.5883 185.469 26.3081C184.884 27.0283 184.167 27.5885 183.317 27.9882C182.493 28.3883 181.51 28.5752 180.42 28.5752C179.331 28.5752 178.401 28.3883 177.604 27.9882C176.86 27.5617 176.249 26.9751 175.824 26.2549C175.425 25.5082 175.239 24.628 175.239 23.6681C175.239 22.7078 175.372 21.6679 175.691 20.7609C175.983 19.8542 176.435 19.0275 177.046 18.3074C177.63 17.5607 178.401 17.0006 179.251 16.6008C180.101 16.2007 181.058 16.0139 182.121 16.0139C183.184 16.0139 184.14 16.2007 184.911 16.6272C185.708 17.0273 186.292 17.614 186.691 18.3341C187.116 19.0808 187.302 19.9078 187.302 20.9209C187.302 21.9344 187.169 22.9211 186.85 23.8281Z" fill="#353638"/>
  <path d="M161.237 11.2671L158.846 23.3215L151.539 11.2671H146.438L142.054 33.2692H148.138L150.556 21.2148L157.836 33.2692H162.938L167.348 11.2671H161.237Z" fill="#64676A"/>
  <path d="M135.172 11.2671L130.788 33.2692H137.006L141.39 11.2671H135.172Z" fill="#878787"/>
  <path d="M126.511 21.8548C125.847 21.4015 125.156 21.0814 124.412 20.8149C123.668 20.548 122.897 20.3347 122.127 20.1214C121.383 19.9346 120.692 19.7214 120.028 19.5345C119.417 19.348 118.912 19.108 118.513 18.8411C118.141 18.5478 117.955 18.2277 117.955 17.8012C117.955 17.3743 118.088 17.0545 118.38 16.7077C118.673 16.3876 119.124 16.1211 119.735 15.9342C120.32 15.7477 121.037 15.6409 121.888 15.6409C122.738 15.6409 124.04 15.7742 125.076 16.0675C126.112 16.3343 127.069 16.7344 127.919 17.2678L130.177 12.654C129.194 12.0674 128.052 11.6138 126.67 11.2672C125.315 10.9471 123.854 10.7871 122.286 10.7871C120.718 10.7871 118.247 11.1072 116.653 11.7738C115.086 12.3872 113.863 13.3207 113.013 14.4942C112.163 15.6677 111.738 17.0545 111.738 18.6546C111.738 20.2547 111.897 20.4948 112.296 21.1349C112.695 21.8283 113.226 22.3882 113.837 22.815C114.448 23.2416 115.139 23.5885 115.909 23.9082C116.706 24.1751 117.45 24.4419 118.194 24.6284C118.938 24.7885 119.656 25.0018 120.293 25.1886C120.905 25.3751 121.409 25.6151 121.808 25.882C122.206 26.1485 122.392 26.4954 122.392 26.9219C122.392 27.3488 122.26 27.6689 121.967 27.9622C121.675 28.2555 121.25 28.4956 120.692 28.6556C120.134 28.8156 119.523 28.8957 118.673 28.8957C117.822 28.8957 116.999 28.7889 116.148 28.6288C115.298 28.4688 114.475 28.2287 113.651 27.9086C112.854 27.5889 112.083 27.1888 111.313 26.7354L108.869 31.3757C109.559 31.8025 110.33 32.2026 111.286 32.576C112.243 32.9493 113.279 33.1893 114.421 33.4026C115.564 33.6427 116.786 33.7227 118.035 33.7227C120.187 33.7227 122.073 33.4026 123.668 32.736C125.235 32.1226 126.484 31.1892 127.334 30.0156C128.185 28.8421 128.61 27.4553 128.61 25.882C128.61 24.3083 128.45 24.1218 128.052 23.4549C127.68 22.7883 127.175 22.2817 126.511 21.8548Z" fill="url(#paint0_linear_4585_6662)"/>
  <path d="M101.19 33.2692H107.38L102.066 11.2671H95.9556L81.8472 33.2692H88.4362L90.9869 28.9755H100.34L101.216 33.2692H101.19ZM93.6705 24.415L97.8951 17.2945L99.3563 24.415H93.6705Z" fill="url(#paint1_linear_4585_6662)"/>
  <path d="M76.5067 27.935C75.6299 28.3351 74.6734 28.5219 73.6901 28.5219C72.7071 28.5219 71.6177 28.3351 70.8206 27.935C69.997 27.5084 69.3858 26.9215 68.9608 26.2017C68.5358 25.4547 68.3496 24.5748 68.3496 23.5881C68.3496 22.6014 68.509 21.4811 68.8278 20.5744C69.1467 19.6141 69.6517 18.8143 70.2626 18.1209C70.8738 17.4274 71.6444 16.9205 72.4945 16.5208C73.3713 16.1471 74.3013 15.9606 75.4172 15.9606C76.5331 15.9606 77.4896 16.2007 78.2603 16.6272C79.0574 17.0806 79.7215 17.7207 80.2262 18.5474L84.7167 14.9739C83.9725 13.6403 82.7769 12.6269 81.2095 11.907C79.6418 11.1868 77.8617 10.8135 75.8158 10.8135C73.7698 10.8135 71.8836 11.1336 70.1829 11.8002C68.509 12.4136 67.0743 13.3738 65.8522 14.547C64.6301 15.7206 63.7 17.1341 63.0359 18.7342C62.345 20.3343 62.0261 22.0677 62.0261 24.0146C62.0261 25.9616 62.4511 27.6149 63.3812 29.0818C64.258 30.5221 65.5333 31.6689 67.2072 32.4955C68.8811 33.3222 70.8473 33.6955 73.0792 33.6955H73.1057C75.0719 33.6691 76.8784 33.3754 78.4726 32.7356C80.12 32.1222 81.5283 31.0287 82.7504 29.5619L79.0838 25.9616C78.2867 26.8683 77.4364 27.5349 76.5331 27.935H76.5067Z" fill="url(#paint2_linear_4585_6662)"/>
  <path d="M197.558 32.976C196.575 32.976 195.751 32.656 195.06 31.9626C194.369 31.2691 194.051 30.469 194.051 29.509C194.051 28.5488 194.423 27.7489 195.087 27.0555C195.751 26.3621 196.601 26.042 197.584 26.042C198.567 26.042 199.365 26.3621 200.029 27.0555C200.72 27.7489 201.038 28.5488 201.038 29.509C201.038 30.469 200.72 31.2691 200.029 31.9626C199.338 32.656 198.514 32.976 197.584 32.976H197.558Z" fill="#353638"/>
  <path d="M269.083 80.047L271.102 64.2054L296.078 41.6167H312.417L286.805 64.4723L277.532 72.3931L269.057 80.0205L269.083 80.047ZM254.417 90.7149L264.248 41.6435H277.931L268.1 90.7149H254.417ZM288.134 90.7149L275.168 70.4461L285.264 61.1121L303.624 90.7149H288.134Z" fill="url(#paint3_linear_4585_6662)"/>
  <path d="M228.006 91.7015C222.985 91.7015 218.654 90.7948 214.881 88.9546C211.188 87.1142 208.345 84.6074 206.326 81.3804C204.333 78.1002 203.323 74.3399 203.323 70.0995C203.323 65.859 204.067 61.9119 205.582 58.3116C207.096 54.7113 209.195 51.5911 211.905 48.9775C214.615 46.3372 217.831 44.257 221.603 42.7901C225.403 41.3501 229.601 40.6299 234.144 40.6299C238.687 40.6299 242.7 41.4033 246.207 43.0302C249.714 44.6303 252.318 46.9238 254.071 49.9107L244.055 57.885C242.939 56.0181 241.477 54.578 239.644 53.5913C237.864 52.6043 235.738 52.1245 233.267 52.1245C230.796 52.1245 228.724 52.551 226.758 53.4045C224.818 54.2579 223.197 55.4315 221.789 56.978C220.381 58.5248 219.292 60.3385 218.548 62.4452C217.804 64.499 217.432 66.7392 217.432 69.1928C217.432 71.6463 217.883 73.3264 218.84 75.0065C219.823 76.6334 221.205 77.9134 222.958 78.8737C224.792 79.7536 226.917 80.2069 229.415 80.2069C231.912 80.2069 233.693 79.7536 235.738 78.8737C237.811 77.9934 239.697 76.5534 241.424 74.5264L249.634 82.5804C246.871 85.8874 243.709 88.2877 240.096 89.6481C236.482 90.9813 232.497 91.6747 228.113 91.6747H228.06L228.006 91.7015Z" fill="url(#paint4_linear_4585_6662)"/>
  <path d="M176.036 90.7145L185.867 41.6431H199.763L189.933 90.7145H176.036Z" fill="url(#paint5_linear_4585_6662)"/>
  <path d="M131.851 90.7145L141.682 41.6431H155.578L148.005 79.7268H171.413L169.155 90.7145H131.825H131.851Z" fill="url(#paint6_linear_4585_6662)"/>
  <path d="M105.441 91.7015C100.419 91.7015 96.0883 90.7948 92.3155 88.9546C88.6224 87.1142 85.7794 84.6074 83.7602 81.3804C81.7674 78.1002 80.7577 74.3399 80.7577 70.0995C80.7577 65.859 81.5015 61.9119 83.016 58.3116C84.5305 54.7113 86.6297 51.5911 89.3398 48.9775C92.0499 46.3372 95.2647 44.257 99.0375 42.7901C102.837 41.3501 106.982 40.6299 111.579 40.6299C116.175 40.6299 120.134 41.4033 123.641 43.0302C127.148 44.6303 129.752 46.9238 131.506 49.9107L121.489 57.885C120.373 56.0181 118.912 54.578 117.078 53.5913C115.298 52.6043 113.173 52.1245 110.702 52.1245C108.231 52.1245 106.158 52.551 104.192 53.4045C102.253 54.2579 100.632 55.4315 99.2237 56.978C97.8154 58.5248 96.7259 60.3385 95.9821 62.4452C95.2383 64.499 94.8662 66.7392 94.8662 69.1928C94.8662 71.6463 95.318 73.3264 96.2745 75.0065C97.2574 76.6334 98.639 77.9134 100.393 78.8737C102.226 79.7536 104.352 80.2069 106.849 80.2069C109.347 80.2069 111.127 79.7536 113.173 78.8737C115.245 77.9934 117.131 76.5534 118.832 74.5264L127.042 82.5804C124.279 85.8874 121.117 88.2877 117.504 89.6481C113.89 90.9813 109.905 91.6747 105.521 91.6747H105.494L105.441 91.7015Z" fill="url(#paint7_linear_4585_6662)"/>
  <path fill-rule="evenodd" clip-rule="evenodd" d="M273.892 61.6983L296.051 41.6431H312.392L287.15 64.2051L303.624 90.741H288.134L276.842 73.0861L270.465 78.8199L268.074 90.741H254.39L264.221 41.6699H277.904L273.866 61.7251H273.892V61.6983ZM275.991 57.9912L279.525 40.3096H263.132L252.796 92.0746H269.189L271.714 79.5133L276.602 75.1396L287.443 92.1014H306.068L288.904 64.472L315.926 40.3363H295.547L275.991 58.018V57.9912Z" fill="url(#paint8_linear_4585_6662)"/>
  <path fill-rule="evenodd" clip-rule="evenodd" d="M214.323 90.1811C210.418 88.261 207.389 85.5674 205.21 82.1268C203.058 78.6333 201.995 74.6062 201.995 70.1524C201.995 65.6987 202.792 61.6451 204.36 57.8312C205.927 54.0709 208.133 50.8174 210.976 48.0703C213.818 45.2966 217.193 43.1367 221.099 41.6163C225.057 40.123 229.415 39.3496 234.118 39.3496C238.82 39.3496 243.019 40.1763 246.738 41.8299C250.458 43.5365 253.328 45.99 255.187 49.2706L255.772 50.2573L243.656 59.9114L242.859 58.6046C241.849 56.9245 240.521 55.6977 238.953 54.8178C237.412 53.9644 235.526 53.511 233.214 53.511C230.903 53.511 228.99 53.9108 227.209 54.6578C225.483 55.4044 223.968 56.4979 222.693 57.9112C221.417 59.3248 220.434 60.9781 219.744 62.9251C219.053 64.8185 218.707 66.9255 218.707 69.219C218.707 71.5125 219.132 72.926 219.929 74.3661C220.78 75.7797 221.949 76.8997 223.49 77.6999C225.084 78.4733 227.024 78.8734 229.362 78.8734C231.7 78.8734 233.294 78.4733 235.127 77.6731C236.961 76.8997 238.688 75.5396 240.335 73.6727L241.238 72.5795L251.335 82.5005L250.538 83.4604C247.668 86.9274 244.294 89.461 240.441 90.9278C236.668 92.3679 232.523 93.0613 227.954 93.0613C223.383 93.0613 218.202 92.1013 214.27 90.1811H214.323ZM222.905 78.8734C221.125 77.9132 219.77 76.6596 218.787 75.0063C217.831 73.3261 217.379 71.3792 217.379 69.1925C217.379 67.0055 217.751 64.4987 218.495 62.445C219.239 60.3383 220.328 58.5246 221.736 56.9777C223.144 55.4312 224.792 54.2309 226.705 53.4042C228.671 52.5508 230.823 52.1242 233.214 52.1242C235.606 52.1242 237.838 52.604 239.591 53.591C241.026 54.3642 242.248 55.4312 243.258 56.7644C243.523 57.1378 243.789 57.4846 244.002 57.8847L254.018 49.9104C252.291 46.9235 249.661 44.63 246.154 43.0299C242.647 41.4298 238.635 40.6296 234.091 40.6296C229.548 40.6296 225.323 41.3498 221.55 42.7899C217.831 44.2299 214.589 46.2837 211.852 48.9773C209.142 51.5908 207.043 54.711 205.529 58.3113C204.014 61.9116 203.27 65.832 203.27 70.0992C203.27 74.3661 204.28 78.1264 206.273 81.3802C208.266 84.6339 211.162 87.1407 214.828 88.9544C218.574 90.7945 222.958 91.7012 227.954 91.7012C232.949 91.7012 236.35 91.0078 239.936 89.6742C243.55 88.261 246.712 85.9139 249.475 82.6069L241.265 74.5529C240.973 74.9262 240.68 75.2463 240.361 75.5396C238.9 77.0332 237.28 78.1532 235.579 78.8998C233.586 79.7801 231.461 80.2334 229.255 80.2334C227.05 80.2334 224.632 79.7801 222.799 78.8998H222.852L222.905 78.8734Z" fill="url(#paint9_linear_4585_6662)"/>
  <path fill-rule="evenodd" clip-rule="evenodd" d="M174.416 92.0746L184.751 40.3096H201.357L191.022 92.0746H174.416ZM176.036 90.7145H189.932L199.763 41.6431H185.867L176.036 90.7145Z" fill="url(#paint10_linear_4585_6662)"/>
  <path fill-rule="evenodd" clip-rule="evenodd" d="M130.204 92.0746L140.539 40.3096H157.145L149.573 78.3933H173.007L170.218 92.0746H130.177H130.204ZM147.952 79.7001L155.525 41.6164H141.629L131.798 90.6878H169.128L171.387 79.7001H147.952Z" fill="url(#paint11_linear_4585_6662)"/>
  <path fill-rule="evenodd" clip-rule="evenodd" d="M91.7311 90.1811C87.8254 88.261 84.7965 85.5674 82.6175 82.1268C80.4654 78.6333 79.4027 74.6062 79.4027 70.1524C79.4027 65.6987 80.1998 61.6451 81.7675 57.8312C83.3349 54.0709 85.5403 50.7906 88.3834 48.0703C91.2261 45.2966 94.6006 43.1367 98.5064 41.6163C102.465 40.123 106.823 39.3496 111.552 39.3496C116.281 39.3496 120.453 40.1763 124.146 41.8299C127.866 43.5365 130.735 45.99 132.595 49.2706L133.18 50.2573L121.064 59.9114L120.267 58.6046C119.257 56.9245 117.982 55.6977 116.361 54.8178C114.82 53.9644 112.934 53.511 110.622 53.511C108.311 53.511 106.398 53.9108 104.617 54.6578C102.89 55.4044 101.376 56.4979 100.101 57.9112C98.8252 59.3248 97.8419 60.9781 97.1513 62.9251C96.4604 64.8185 96.1151 66.9255 96.1151 69.219C96.1151 71.5125 96.5401 72.926 97.3372 74.3661C98.1875 75.7797 99.3564 76.8997 100.898 77.6999C102.492 78.4733 104.431 78.8734 106.769 78.8734C109.108 78.8734 110.702 78.4733 112.535 77.6731C114.368 76.8997 116.095 75.5396 117.743 73.6727L118.673 72.5795L128.769 82.5005L127.972 83.4604C125.102 86.9274 121.728 89.461 117.876 90.9278C114.103 92.3679 109.958 93.0613 105.388 93.0613C100.818 93.0613 95.6369 92.1013 91.6779 90.1811H91.7043H91.7311ZM100.313 78.8734C98.5329 77.9132 97.1778 76.6596 96.1948 75.0063C95.2383 73.3261 94.7865 71.3792 94.7865 69.1925C94.7865 67.0055 95.1586 64.4987 95.9025 62.445C96.6463 60.3383 97.7358 58.5246 99.1441 56.9777C100.552 55.4312 102.226 54.2309 104.112 53.4042C106.079 52.5508 108.231 52.1242 110.622 52.1242C113.013 52.1242 115.245 52.604 116.999 53.591C118.434 54.3642 119.656 55.4312 120.665 56.7644C120.931 57.1378 121.197 57.4846 121.409 57.8847L131.426 49.9104C129.699 46.9235 127.069 44.63 123.561 43.0299C120.054 41.4298 116.042 40.6296 111.499 40.6296C106.956 40.6296 102.731 41.3498 98.9579 42.7899C95.2383 44.2299 91.9702 46.2837 89.2601 48.9773C86.55 51.5908 84.4508 54.711 82.9364 58.3113C81.4219 61.9116 80.6781 65.832 80.6781 70.0992C80.6781 74.3661 81.6878 78.1264 83.6805 81.3802C85.6733 84.6339 88.5692 87.1407 92.2358 88.9544C95.9557 90.7945 100.366 91.7012 105.361 91.7012C110.356 91.7012 113.757 91.0078 117.344 89.6742C120.958 88.261 124.119 85.9139 126.883 82.6069L118.673 74.5529C118.38 74.9262 118.088 75.2463 117.743 75.5396C116.281 77.0332 114.661 78.1532 112.96 78.8998C110.967 79.7801 108.842 80.2334 106.637 80.2334C104.431 80.2334 102.014 79.7801 100.18 78.8998H100.233L100.313 78.8734Z" fill="url(#paint12_linear_4585_6662)"/>
  <path fill-rule="evenodd" clip-rule="evenodd" d="M32.4541 14.7341C34.0218 15.2407 35.6957 14.3872 36.2004 12.8139L39.0964 3.90643C39.6015 2.3328 38.7511 0.652689 37.1834 0.146102C35.616 -0.360797 33.9421 0.492646 33.4371 2.06627L30.5411 10.9737C30.0364 12.5471 30.8864 14.2272 32.4541 14.7341ZM14.9182 2.22632C16.3795 1.47936 18.1597 2.06627 18.9036 3.5331L23.1548 11.8804C23.8987 13.3473 23.3142 15.1342 21.8529 15.8808C21.1089 16.2541 20.3118 16.3074 19.5944 16.0676C18.8771 15.8276 18.2394 15.3207 17.8674 14.574L13.6163 6.2267C12.8723 4.75987 13.4569 2.97297 14.9182 2.22632ZM58.3595 67.7259L69.7314 90.1013C70.4753 91.5679 69.8908 93.3548 68.4293 94.1014L57.5624 99.6754C56.8715 100.022 56.048 100.102 55.3041 99.8622C54.56 99.6222 53.9223 99.0888 53.577 98.3686L42.2319 75.9932L31.3914 85.7808C30.5411 86.5543 29.3455 86.7676 28.2827 86.3142C27.2199 85.8873 26.5026 84.8742 26.4228 83.7539L22.464 23.0549C22.3842 21.8546 23.0219 20.7347 24.0847 20.2013C25.1475 19.6679 26.4228 19.8012 27.3262 20.5746L73.9028 59.4582C74.7796 60.1784 75.1516 61.3516 74.8857 62.4719C74.6201 63.5919 73.7433 64.4453 72.6274 64.6854L58.386 67.7259H58.3595ZM14.6791 23.8284C15.1839 22.2547 14.3336 20.5746 12.7661 20.0677L3.89178 17.1608C2.32419 16.6542 0.650295 17.5077 0.145473 19.081C-0.359352 20.6546 0.490878 22.3348 2.05848 22.8413L10.9328 25.7485C12.5003 26.2551 14.1742 25.4017 14.6791 23.8284ZM2.37731 36.4694L10.6936 32.2025C12.1549 31.4555 13.9351 32.0424 14.6791 33.5093C15.423 34.9761 14.8385 36.7627 13.3771 37.5096L5.06086 41.7766C4.31692 42.1499 3.51983 42.2034 2.80245 41.9634C2.08507 41.7233 1.4474 41.2164 1.07541 40.4698C0.33146 39.0029 0.915991 37.216 2.37731 36.4694ZM44.251 21.7481C43.5072 22.1215 42.7101 22.1747 41.9927 21.9347C41.2753 21.6946 40.6377 21.188 40.2656 20.4414C39.5218 18.9745 40.1062 17.1876 41.5674 16.441L49.8839 12.1737C51.3451 11.4271 53.1252 12.0137 53.8694 13.4805C54.6132 14.9474 54.0288 16.7343 52.5672 17.4809L44.251 21.7481Z" fill="url(#paint13_linear_4585_6662)"/>
  <defs>
    <linearGradient id="paint0_linear_4585_6662" x1="73.7698" y1="44.0438" x2="197.405" y2="-13.6334" gradientUnits="userSpaceOnUse">
      <stop offset="0.3" stop-color="#D7D1D9"/>
      <stop offset="0.4" stop-color="#B8B4BA"/>
      <stop offset="0.5" stop-color="#949397"/>
      <stop offset="0.6" stop-color="#77787A"/>
    </linearGradient>
    <linearGradient id="paint1_linear_4585_6662" x1="73.8495" y1="35.3759" x2="181.069" y2="-14.7205" gradientUnits="userSpaceOnUse">
      <stop stop-color="#8C8D9B"/>
      <stop offset="0.3" stop-color="#D7D1D9"/>
    </linearGradient>
    <linearGradient id="paint2_linear_4585_6662" x1="61.9997" y1="22.2545" x2="84.6899" y2="22.2545" gradientUnits="userSpaceOnUse">
      <stop stop-color="#7B7B7D"/>
      <stop offset="0.3" stop-color="#7B7B7D"/>
      <stop offset="0.8" stop-color="#737687"/>
    </linearGradient>
    <linearGradient id="paint3_linear_4585_6662" x1="283.431" y1="45.0037" x2="283.431" y2="213.394" gradientUnits="userSpaceOnUse">
      <stop stop-color="#FFD324"/>
      <stop offset="0.1" stop-color="#FDC822"/>
      <stop offset="0.4" stop-color="#F8AB1D"/>
      <stop offset="0.7" stop-color="#F07E16"/>
      <stop offset="1" stop-color="#E9510F"/>
    </linearGradient>
    <linearGradient id="paint4_linear_4585_6662" x1="228.697" y1="-6.62784" x2="228.697" y2="218.061" gradientUnits="userSpaceOnUse">
      <stop stop-color="#FFD324"/>
      <stop offset="0.1" stop-color="#FDC822"/>
      <stop offset="0.4" stop-color="#F8AB1D"/>
      <stop offset="0.7" stop-color="#F07E16"/>
      <stop offset="1" stop-color="#E9510F"/>
    </linearGradient>
    <linearGradient id="paint5_linear_4585_6662" x1="187.913" y1="-78.5283" x2="187.913" y2="221.607" gradientUnits="userSpaceOnUse">
      <stop stop-color="#FFD324"/>
      <stop offset="0.1" stop-color="#FDC822"/>
      <stop offset="0.4" stop-color="#F8AB1D"/>
      <stop offset="0.7" stop-color="#F07E16"/>
      <stop offset="1" stop-color="#E9510F"/>
    </linearGradient>
    <linearGradient id="paint6_linear_4585_6662" x1="151.592" y1="-126.826" x2="151.592" y2="171.655" gradientUnits="userSpaceOnUse">
      <stop stop-color="#FFD324"/>
      <stop offset="0.1" stop-color="#FDC822"/>
      <stop offset="0.4" stop-color="#F8AB1D"/>
      <stop offset="0.7" stop-color="#F07E16"/>
      <stop offset="1" stop-color="#E9510F"/>
    </linearGradient>
    <linearGradient id="paint7_linear_4585_6662" x1="106.105" y1="-109.411" x2="106.105" y2="115.304" gradientUnits="userSpaceOnUse">
      <stop stop-color="#FFD324"/>
      <stop offset="0.1" stop-color="#FDC822"/>
      <stop offset="0.4" stop-color="#F8AB1D"/>
      <stop offset="0.7" stop-color="#F07E16"/>
      <stop offset="1" stop-color="#E9510F"/>
    </linearGradient>
    <linearGradient id="paint8_linear_4585_6662" x1="107.035" y1="21.7744" x2="300.254" y2="69.8131" gradientUnits="userSpaceOnUse">
      <stop stop-color="#FFD324"/>
      <stop offset="0.2" stop-color="#FDC822"/>
      <stop offset="0.5" stop-color="#F8AB1D"/>
      <stop offset="0.8" stop-color="#F07E16"/>
      <stop offset="1" stop-color="#ED6A13"/>
    </linearGradient>
    <linearGradient id="paint9_linear_4585_6662" x1="103.9" y1="34.3625" x2="297.119" y2="82.3743" gradientUnits="userSpaceOnUse">
      <stop stop-color="#FFD324"/>
      <stop offset="0.2" stop-color="#FDC822"/>
      <stop offset="0.5" stop-color="#F8AB1D"/>
      <stop offset="0.8" stop-color="#F07E16"/>
      <stop offset="1" stop-color="#ED6A13"/>
    </linearGradient>
    <linearGradient id="paint10_linear_4585_6662" x1="101.349" y1="44.5232" x2="294.568" y2="92.5354" gradientUnits="userSpaceOnUse">
      <stop stop-color="#FFD324"/>
      <stop offset="0.2" stop-color="#FECF23"/>
      <stop offset="0.4" stop-color="#FCC521"/>
      <stop offset="0.6" stop-color="#F9B41F"/>
      <stop offset="0.8" stop-color="#F59C1B"/>
      <stop offset="0.9" stop-color="#F07D16"/>
      <stop offset="1" stop-color="#ED6A13"/>
    </linearGradient>
    <linearGradient id="paint11_linear_4585_6662" x1="98.7719" y1="54.9511" x2="292.017" y2="102.963" gradientUnits="userSpaceOnUse">
      <stop stop-color="#FFD324"/>
      <stop offset="0.2" stop-color="#FDC822"/>
      <stop offset="0.5" stop-color="#F8AB1D"/>
      <stop offset="0.8" stop-color="#F07E16"/>
      <stop offset="1" stop-color="#ED6A13"/>
    </linearGradient>
    <linearGradient id="paint12_linear_4585_6662" x1="96.6995" y1="63.2719" x2="289.919" y2="111.284" gradientUnits="userSpaceOnUse">
      <stop stop-color="#FFD324"/>
      <stop offset="0.2" stop-color="#FDC822"/>
      <stop offset="0.5" stop-color="#F8AB1D"/>
      <stop offset="0.8" stop-color="#F07E16"/>
      <stop offset="1" stop-color="#ED6A13"/>
    </linearGradient>
    <linearGradient id="paint13_linear_4585_6662" x1="4.23721" y1="57.4848" x2="79.186" y2="42.2598" gradientUnits="userSpaceOnUse">
      <stop stop-color="#A7A6AB"/>
      <stop offset="0.1" stop-color="#BDB9BF"/>
      <stop offset="0.2" stop-color="#CCC6CD"/>
      <stop offset="0.3" stop-color="#D5CED5"/>
      <stop offset="0.4" stop-color="#D8D1D8"/>
      <stop offset="0.566666" stop-color="#B9B5BA"/>
      <stop offset="0.9" stop-color="#73777A"/>
    </linearGradient>
  </defs>
</svg>