<?xml version="1.0" encoding="utf-8"?>
<svg xmlns="http://www.w3.org/2000/svg" xmlns:xlink="http://www.w3.org/1999/xlink" x="0px" y="0px" viewBox="0 0 100 100" style="enable-background:new 0 0 100 100;">
    <path d="M15.2849 63.4424V69.7092H4.18991V63.4424H0.572754V79.958H4.18991V73.0958H15.2849V79.958H18.9016V63.4424H15.2849Z" fill="#431AA2"/>
    <path d="M27.7807 63.4429H24.1636V79.9588H27.7807V63.4429Z" fill="#431AA2"/>
    <path d="M41.5138 70.6894V74.0749H48.3033C47.2736 76.0274 45.3954 76.9792 42.5877 76.9792C40.5868 76.9792 38.9654 76.4755 37.7688 75.4846C37.1935 75.0004 36.7366 74.3933 36.4325 73.7089C36.1284 73.0245 35.985 72.2807 36.0131 71.5335C36.0412 70.7863 36.24 70.0551 36.5947 69.395C36.9493 68.7349 37.4505 68.1631 38.0605 67.7226C39.3802 66.7958 40.9709 66.3241 42.5877 66.3801C43.6559 66.3427 44.7193 66.5386 45.7025 66.9538C46.6858 67.369 47.5647 67.9934 48.2771 68.7828L48.559 69.0895L51.9029 67.395L51.4541 66.8736C50.4039 65.6148 49.0794 64.6081 47.5802 63.929C46.0809 63.2499 44.4459 62.916 42.7977 62.9524C39.9109 62.9524 37.4853 63.6931 35.5881 65.1551V65.1562C34.5667 65.9172 33.7372 66.9023 33.1646 68.0341C32.592 69.166 32.2919 70.4138 32.2879 71.6798C32.2839 72.9458 32.576 74.1955 33.1414 75.331C33.7067 76.4664 34.53 77.4566 35.5465 78.224C37.4288 79.6723 39.7974 80.4069 42.5877 80.4069C45.6388 80.4069 48.1338 79.5817 50.0017 77.9549C51.888 76.3087 52.8448 74.1263 52.8448 71.4652V70.6894L41.5138 70.6894Z" fill="#431AA2"/>
    <path d="M72.0653 63.4424V69.7092H60.97V63.4424H57.3521V79.958H60.97V73.0958H72.0653V79.958H75.6825V63.4424H72.0653Z" fill="#431AA2"/>
    <path d="M13.6836 95.1456C12.4777 96.4705 10.8549 97.1149 8.72356 97.1149C6.98115 97.1149 5.58869 96.6978 4.58433 95.8746C4.12051 95.4849 3.74821 94.9996 3.49345 94.4526C3.23869 93.9056 3.10763 93.3101 3.10943 92.7077C3.11122 92.1053 3.24583 91.5105 3.50384 90.965C3.76186 90.4195 4.13704 89.9364 4.60318 89.5495C5.74103 88.669 7.15888 88.22 8.60135 88.2832C10.7734 88.2832 12.4785 88.9344 13.6699 90.2189L13.877 90.442L16.6547 89.4335L16.2842 88.9467C14.5049 86.6066 11.9202 85.421 8.60135 85.421C6.50121 85.3561 4.44086 85.9982 2.75657 87.2425C1.90323 87.8797 1.21034 88.7039 0.732111 89.6506C0.253878 90.5973 0.00327578 91.6407 -8.77578e-05 92.6993C-0.0034513 93.7578 0.240515 94.8028 0.712723 95.7524C1.18493 96.702 1.87257 97.5305 2.72183 98.1731C4.28326 99.3714 6.2611 99.978 8.60135 99.978C10.0746 100.011 11.5398 99.7539 12.9117 99.221C14.1861 98.6702 15.3081 97.824 16.1834 96.7539L16.535 96.338L13.9298 94.8755L13.6836 95.1456Z" fill="#431AA2"/>
    <path d="M28.2976 85.8301H25.0898L17.8955 99.6212H21.2324L22.6964 96.7378H30.6906L32.1551 99.6212H35.4911L28.2976 85.8301ZM29.2012 93.9116H24.1901L26.7109 89.1069L29.2012 93.9116Z" fill="#431AA2"/>
    <path d="M51.2188 92.3504C50.3963 91.7217 49.1359 91.2897 47.4699 91.0667C46.8905 90.9937 45.7116 90.8968 43.9627 90.7787C43.1326 90.7617 42.3081 90.6387 41.5097 90.413C40.7082 90.1301 40.7082 89.7405 40.7082 89.594C40.7082 89.3671 40.788 89.0316 41.4741 88.7244C42.3683 88.3996 43.3193 88.2559 44.2706 88.3018C46.2065 88.3186 48.1091 88.8018 49.8144 89.7095L50.1326 89.8739L51.9916 87.7848L51.5692 87.4951C49.6488 86.177 47.246 85.5088 44.4285 85.5088C42.3138 85.5088 40.6396 85.8856 39.453 86.6302C38.8734 86.9542 38.3924 87.4266 38.0602 87.9978C37.7281 88.569 37.5569 89.2181 37.5648 89.8773C37.5278 90.4773 37.6719 91.0746 37.9786 91.5933C38.2854 92.112 38.741 92.5286 39.2874 92.7901C40.1944 93.2501 41.6928 93.5462 43.8701 93.6932C46.7653 93.8826 47.7872 94.0321 48.135 94.1235C49.2166 94.411 49.3418 94.9476 49.3418 95.3252C49.3418 95.6574 49.2453 96.1493 48.4142 96.577C47.6641 96.9581 46.571 97.1509 45.1648 97.1509C42.9754 97.1524 40.8311 96.534 38.9847 95.3685L38.6253 95.1464L36.955 97.3803L37.2946 97.653C39.1721 99.1597 41.8142 99.9235 45.1477 99.9235C47.4604 99.9235 49.2732 99.5233 50.5353 98.7337C51.1597 98.374 51.6749 97.8547 52.0271 97.2301C52.3793 96.6054 52.5555 95.8985 52.5371 95.1833C52.5627 94.641 52.4563 94.1006 52.2268 93.6076C51.9974 93.1146 51.6517 92.6834 51.2188 92.3504Z" fill="#431AA2"/>
    <path d="M59.2953 85.8306H56.2758V99.6217H59.2953V85.8306Z" fill="#431AA2"/>
    <path d="M76.0094 85.8306V95.6842L66.9628 85.8306H63.6895V99.6217H66.7083V89.7739L75.7502 99.6217H79.0298V85.8306H76.0094Z" fill="#431AA2"/>
    <path d="M97.2451 87.262C95.5654 86.0057 93.5024 85.3561 91.3986 85.4209C89.2918 85.3614 87.2265 86.0093 85.5384 87.2594L85.5376 87.2603C84.6797 87.8924 83.9824 88.7139 83.5008 89.6595C83.0193 90.6051 82.7668 91.6488 82.7633 92.7078C82.7599 93.7669 83.0056 94.8122 83.481 95.7609C83.9563 96.7095 84.6483 97.5354 85.502 98.1731C87.0737 99.3824 89.0575 99.9958 91.3986 99.9958C93.5013 100.063 95.5657 99.4275 97.2597 98.1917C98.1124 97.5523 98.8037 96.7257 99.2792 95.7768C99.7547 94.8279 100.001 93.7826 100 92.7233C99.9986 91.6639 99.7491 90.6193 99.2711 89.6717C98.793 88.724 98.0995 87.8991 97.2451 87.262ZM96.8905 92.7086C96.9113 93.3141 96.7901 93.9162 96.5365 94.4676C96.2829 95.0189 95.9038 95.5046 95.4289 95.8864C94.4375 96.7139 93.0814 97.1336 91.3986 97.1336C89.7038 97.1336 88.3384 96.7165 87.3383 95.8932C86.8754 95.5013 86.5044 95.0141 86.2512 94.4656C85.9979 93.917 85.8685 93.3204 85.872 92.7172C85.8755 92.114 86.0117 91.5189 86.2713 90.9733C86.5308 90.4276 86.9074 89.9446 87.3747 89.5579C88.5194 88.6709 89.9467 88.2187 91.3986 88.2831C92.7485 88.2363 94.0764 88.6301 95.1781 89.4042C95.7176 89.7713 96.1565 90.2655 96.4554 90.8423C96.7543 91.4191 96.9038 92.0604 96.8905 92.7086Z" fill="#431AA2"/>
    <path d="M85.9117 79.9585V77.0893H91.7875C94.2606 77.0893 95.2715 75.9195 95.2715 74.6837C95.2715 73.5139 94.5003 72.3881 91.7875 72.3881H85.9117V63.4053H97.7974V66.2964H89.5811V69.629H92.2134C96.9197 69.629 99.2066 71.9246 99.2066 74.7277C99.2066 77.5749 96.8668 79.9585 92.1337 79.9585H85.9117Z" fill="#431AA2"/>
    <path d="M47.3556 7.28673L47.3627 7.27799C47.4375 7.38289 47.5334 7.47125 47.6444 7.53749C47.7554 7.60373 47.8791 7.6464 48.0077 7.66279C48.1362 7.67919 48.2668 7.66894 48.3912 7.63272C48.5155 7.59649 48.6309 7.53506 48.73 7.45234C48.8291 7.36962 48.9098 7.2674 48.967 7.15216C49.0241 7.03692 49.0564 6.91119 49.0619 6.78292C49.0674 6.65465 49.046 6.52665 48.9989 6.40703C48.9518 6.28742 48.8802 6.17879 48.7885 6.08805C48.6862 5.98821 48.5621 5.91313 48.4257 5.86864L45.4985 3.89847C45.4656 3.86591 45.4209 3.84764 45.3743 3.84766C45.3278 3.84767 45.2831 3.86598 45.2502 3.89856C45.2173 3.93114 45.1987 3.97533 45.1986 4.02144C45.1985 4.06755 45.2169 4.11182 45.2497 4.14453L47.3556 7.28673Z" fill="#431AA2"/>
    <path d="M55.0884 7.39879C55.125 7.36115 55.1585 7.32064 55.1884 7.27765L55.1956 7.28639L57.3014 4.14419C57.3178 4.12804 57.3307 4.10886 57.3395 4.08775C57.3483 4.06664 57.3529 4.04401 57.3529 4.02116C57.3529 3.99831 57.3483 3.97569 57.3395 3.95458C57.3307 3.93347 57.3178 3.91429 57.3014 3.89813C57.2851 3.88197 57.2658 3.86916 57.2445 3.86041C57.2231 3.85167 57.2003 3.84717 57.1772 3.84717C57.1542 3.84717 57.1313 3.85167 57.11 3.86041C57.0887 3.86916 57.0693 3.88197 57.053 3.89813L54.1258 5.86871C53.9924 5.9135 53.8708 5.9876 53.7703 6.08547C53.6699 6.18334 53.593 6.30245 53.5456 6.43389C53.4981 6.56533 53.4813 6.7057 53.4963 6.8445C53.5113 6.98329 53.5579 7.11693 53.6324 7.2354C53.7069 7.35387 53.8075 7.45412 53.9267 7.52865C54.0459 7.60317 54.1805 7.65004 54.3205 7.66576C54.4606 7.68147 54.6024 7.66562 54.7353 7.61939C54.8683 7.57317 54.989 7.49774 55.0884 7.39879Z" fill="#431AA2"/>
    <path d="M51.2757 7.63035C51.4866 7.63365 51.6956 7.59045 51.8875 7.50387C52.0794 7.41729 52.2495 7.2895 52.3854 7.12976C52.5214 6.97002 52.6197 6.78233 52.6733 6.58029C52.727 6.37825 52.7346 6.16692 52.6956 5.96161L52.7136 5.96329L51.5468 0.26801C51.5465 0.196965 51.5178 0.128922 51.467 0.0787817C51.4162 0.028641 51.3474 0.000488281 51.2757 0.000488281C51.204 0.000488281 51.1352 0.028641 51.0843 0.0787817C51.0335 0.128922 51.0048 0.196965 51.0046 0.26801L49.9853 5.57151C49.8854 5.76683 49.8327 5.9825 49.8314 6.20145C49.8315 6.38922 49.8689 6.57513 49.9416 6.74857C50.0142 6.922 50.1206 7.07957 50.2547 7.21226C50.3888 7.34495 50.548 7.45017 50.7232 7.52191C50.8984 7.59364 51.0861 7.63049 51.2757 7.63035Z" fill="#431AA2"/>
    <path d="M47.3958 21.6541L46.445 20.5575L49.4322 20.5579C50.2737 18.2374 50.7031 15.7902 50.7017 13.3246C50.7017 12.6314 50.6651 11.9465 50.6003 11.2699C50.849 11.067 51.0384 10.8019 51.1489 10.5021C51.1472 10.5138 51.146 10.5255 51.1443 10.5375C51.1619 10.4938 51.1712 10.446 51.1855 10.401C51.2014 10.3498 51.2199 10.3006 51.2317 10.2477C51.2593 10.1258 51.2736 10.0013 51.2746 9.87637V9.87595C51.2733 9.80532 51.2676 9.73483 51.2578 9.66487C51.2227 9.36719 51.1127 9.083 50.9379 8.83844C50.763 8.59387 50.5288 8.39678 50.257 8.26528C49.9851 8.13378 49.6842 8.07209 49.3819 8.08588C49.0797 8.09967 48.7858 8.1885 48.5273 8.34421C48.4895 8.36667 48.46 8.39958 48.4243 8.42497C48.4403 8.40913 48.4525 8.3904 48.4693 8.37541C48.1558 8.57477 47.9123 8.86538 47.7723 9.20732C47.6322 9.54925 47.6025 9.92575 47.6872 10.2851C47.7718 10.6444 47.9667 10.969 48.2451 11.2142C48.5235 11.4594 48.8717 11.6133 49.2418 11.6546C49.2423 11.6896 49.2448 11.7245 49.2448 11.7595C49.2444 12.3035 49.1908 12.8462 49.0847 13.38C49.0893 13.3779 49.093 13.375 49.0977 13.3729C48.8668 14.5372 48.3906 15.6402 47.7001 16.6098C47.0095 17.5794 46.1203 18.3938 45.0904 18.9997C45.4901 18.5124 45.716 17.9078 45.7329 17.2801C45.7497 16.6524 45.5566 16.0368 45.1835 15.5292C44.8105 15.0215 44.2784 14.6502 43.6702 14.4732C43.062 14.2962 42.4118 14.3233 41.8207 14.5503C41.2297 14.7774 40.731 15.1916 40.4024 15.7285C40.0737 16.2655 39.9335 16.895 40.0036 17.519C40.0736 18.1431 40.35 18.7267 40.7897 19.1791C41.2294 19.6314 41.8078 19.927 42.4347 20.0199C40.7961 20.3585 39.093 20.2093 37.5399 19.5911C35.9867 18.9729 34.6529 17.9134 33.7064 16.5459C33.7098 16.5006 33.7135 16.4548 33.7135 16.4081C33.7148 16.0715 33.62 15.7414 33.44 15.4559C33.26 15.1704 33.0022 14.9411 32.6963 14.7944C32.3905 14.6478 32.049 14.5898 31.7112 14.6271C31.3735 14.6645 31.0533 14.7956 30.7876 15.0054C30.7922 14.9992 30.796 14.9913 30.801 14.985C30.7712 15.0071 30.7481 15.0371 30.7195 15.0612C30.6696 15.103 30.622 15.1475 30.577 15.1945C30.5264 15.2482 30.4791 15.3049 30.4354 15.3643C30.4131 15.3952 30.3925 15.4264 30.3719 15.4584C30.3199 15.5373 30.2744 15.6201 30.2357 15.7061C30.2336 15.7112 30.2319 15.717 30.2298 15.722C30.1328 15.9381 30.0813 16.1716 30.0785 16.4081C30.0795 16.8834 30.2707 17.3389 30.6102 17.6748C30.9498 18.0106 31.4099 18.1994 31.8897 18.1997L31.896 18.1993L31.9023 18.1997C32.1447 18.1998 32.3846 18.1516 32.6077 18.0577C39.5772 20.7053 38.4826 27.2412 38.4826 27.2412H45.3374L48.4226 22.8391L47.3958 21.6541Z" fill="#431AA2"/>
    <path d="M72.4098 16.0093C72.4019 15.9768 72.3897 15.9468 72.38 15.9152C72.3525 15.818 72.3166 15.7233 72.2728 15.6321C72.2602 15.6067 72.2459 15.5825 72.232 15.5575C72.179 15.4613 72.1173 15.37 72.0475 15.2848C72.0374 15.2728 72.0277 15.2603 72.0173 15.2482C71.7777 14.9696 71.4576 14.7704 71.1001 14.6776C70.7427 14.5848 70.3651 14.6028 70.0183 14.7293C69.6715 14.8557 69.3723 15.0845 69.1609 15.3847C68.9495 15.6849 68.8362 16.0422 68.8362 16.4082C68.8362 16.4548 68.8395 16.5006 68.8429 16.546C67.8799 17.933 66.5195 19.0025 64.9371 19.6166C63.3548 20.2306 61.6229 20.361 59.965 19.9909C60.3761 19.9562 60.7749 19.8342 61.1342 19.6333C61.4935 19.4324 61.8049 19.1572 62.0473 18.8265C62.2896 18.4958 62.4573 18.1172 62.5388 17.7166C62.6204 17.316 62.6139 16.9027 62.5198 16.5048C62.5055 16.4427 62.4816 16.3857 62.4635 16.3253C62.4234 16.1851 62.3725 16.0481 62.3114 15.9156C62.2819 15.8544 62.2474 15.797 62.2138 15.7383C62.1449 15.6154 62.0667 15.4978 61.9801 15.3864C61.9406 15.3357 61.9007 15.2869 61.8578 15.239C61.7587 15.129 61.6512 15.0267 61.5363 14.933C61.5077 14.9093 61.4854 14.8789 61.456 14.8564C61.4644 14.8656 61.4707 14.8768 61.4791 14.886C60.9132 14.4366 60.1976 14.214 59.4739 14.2621C58.7502 14.3103 58.0711 14.6258 57.571 15.1462C57.0708 15.6665 56.7861 16.3539 56.7731 17.0722C56.7601 17.7905 57.0197 18.4876 57.5007 19.0254C56.4331 18.4043 55.5152 17.56 54.8109 16.5514C54.1066 15.5428 53.633 14.3942 53.423 13.1856C53.389 12.9887 53.3549 12.7917 53.3347 12.5898C53.3074 12.3175 53.2923 12.0415 53.2923 11.7621V11.7596C53.2923 11.7246 53.2944 11.6901 53.2948 11.6551C53.5666 11.624 53.8276 11.5323 54.0585 11.3869C54.2893 11.2415 54.4839 11.0463 54.6277 10.8157C54.6851 10.7243 54.7339 10.6279 54.7736 10.5276C54.8553 10.3199 54.8972 10.0989 54.8971 9.87602C54.8969 9.72022 54.876 9.56511 54.8349 9.41472C54.8119 9.34663 54.7847 9.28002 54.7534 9.21529C54.7281 9.14224 54.698 9.07089 54.6634 9.00169C54.6141 8.92296 54.5586 8.84821 54.4974 8.77812C54.4633 8.73565 54.436 8.68776 54.3982 8.64862C54.3282 8.58033 54.2525 8.51794 54.172 8.4621C54.1359 8.43463 54.1061 8.40006 54.0678 8.37549C54.0728 8.38007 54.0766 8.38591 54.0812 8.39089C54.0602 8.37717 54.0438 8.3576 54.0224 8.34426C53.6302 8.108 53.1619 8.02835 52.7126 8.12145C52.2633 8.21456 51.8665 8.47345 51.6028 8.84563C51.3391 9.2178 51.2282 9.6754 51.2925 10.1256C51.3569 10.5758 51.5917 10.9849 51.9493 11.27C51.8842 11.9466 51.8476 12.6314 51.8476 13.3247C51.8463 15.7902 52.2758 18.2374 53.117 20.5579L56.1043 20.5576L54.1267 22.8391L57.2 27.2285L51.2747 24.2287L45.3375 27.2415C45.915 27.231 56.3217 27.2052 57.2 27.2285L63.9793 27.2287C63.9712 27.0801 62.8708 20.5575 69.9354 18.0561C70.1603 18.1512 70.4024 18.2002 70.647 18.2001C70.999 18.2006 71.3435 18.0989 71.6377 17.9074C71.7322 17.8457 71.8209 17.7756 71.9025 17.698C72.0783 17.5313 72.2182 17.3311 72.3137 17.1094C72.4092 16.8878 72.4584 16.6492 72.4582 16.4082C72.4571 16.2738 72.4409 16.14 72.4098 16.0093Z" fill="#431AA2"/>
    <path d="M52.6745 52.7804H49.8204C46.752 52.7788 43.8096 51.5717 41.6386 49.4239C39.4676 47.2761 38.2453 44.363 38.2399 41.3237H41.8946C41.8984 43.4038 42.7349 45.3975 44.2207 46.8675C45.7066 48.3375 47.7204 49.1637 49.8204 49.1648H52.6745C54.7745 49.1637 56.7883 48.3375 58.2742 46.8675C59.76 45.3975 60.5965 43.4038 60.6003 41.3237V39.5937H38.2558V29.4839H64.3038V33.0995H41.9102V35.9781H64.2551V41.3237C64.2497 44.363 63.0275 47.2762 60.8564 49.424C58.6854 51.5718 55.7429 52.7789 52.6745 52.7804Z" fill="#431AA2"/>
</svg>