<?xml version="1.0" encoding="utf-8"?>
<svg xmlns="http://www.w3.org/2000/svg" xmlns:xlink="http://www.w3.org/1999/xlink" x="0px" y="0px" viewBox="0 0 100 16" style="enable-background:new 0 0 100 16;">
  <path d="M8.79663 11.5731C8.77924 10.5716 8.97695 9.60481 9.25286 8.65323C9.3528 8.30563 9.49184 7.96671 9.61567 7.62562C9.70475 7.3823 9.84596 7.23239 10.1371 7.19111C10.8888 7.089 11.6318 6.89999 12.3857 6.83264C13.6653 6.7175 14.9514 6.67622 16.2289 6.85437C16.7655 6.92823 17.2891 7.07162 17.7823 7.3345C18.3276 7.62345 18.8186 7.96454 19.2227 8.42946C19.5659 8.82269 19.7984 9.26806 19.7701 9.80251C19.7397 10.3913 19.516 10.8888 19.051 11.282C18.1212 12.0685 17.024 12.3944 15.8444 12.516C15.6749 12.5334 15.5054 12.5464 15.3338 12.5464C15.1839 12.5464 15.1079 12.6029 15.0688 12.7507C15.0036 13.0027 14.9297 13.2547 14.8406 13.498C14.5169 14.367 13.9912 15.0796 13.1721 15.538C12.7941 15.7488 12.3618 15.827 11.9273 15.853C10.9062 15.9117 10.0697 15.5467 9.48967 14.7038C9.2811 14.4018 9.15727 14.0325 9.04212 13.6783C8.8227 12.9961 8.80966 12.2814 8.79663 11.5731Z" fill="url(#paint0_linear_9494_60190)"/>
  <path d="M2.12475 12.616C1.50123 13.2569 1.16448 14.0303 1.09931 14.9493C0.997197 14.0238 0.545308 13.2829 0 12.5595C0.766908 12.6399 1.37957 12.4009 1.91184 11.7404C1.81625 11.6796 1.72283 11.634 1.64679 11.5688C1.18838 11.1799 1.00589 10.6759 1.14276 10.1023C1.37957 9.11382 2.01612 8.4186 2.86341 7.89067C3.47824 7.50831 4.16042 7.31495 4.85346 7.15635C5.95929 6.90434 7.08249 6.7805 8.21873 6.81092C8.34257 6.81309 8.46857 6.8283 8.59241 6.83699C8.61413 6.83699 8.63586 6.85003 8.688 6.86523C8.70104 6.9391 8.72276 7.026 8.72711 7.11073C8.76838 7.83853 8.63369 8.54461 8.48595 9.25286C8.30346 10.1327 8.01886 10.9757 7.62345 11.7774C7.08249 12.8745 6.35469 13.8195 5.24017 14.3866C4.69269 14.6647 4.11262 14.8689 3.46955 14.7516C3.08936 14.682 2.78955 14.4822 2.61574 14.1585C2.46366 13.8739 2.38763 13.548 2.29638 13.233C2.23989 13.0353 2.22034 12.8267 2.18558 12.6225L2.12258 12.6138L2.12475 12.616Z" fill="url(#paint1_linear_9494_60190)"/>
  <path d="M16.7699 1.93138C17.0393 1.96397 17.2913 2.0009 17.5433 2.02263C18.1603 2.07477 18.7121 2.27682 19.1988 2.66787C19.6181 3.00679 19.7223 3.4652 19.6854 3.96488C19.6572 4.34508 19.5029 4.65792 19.1879 4.92297C18.4883 5.51173 17.6628 5.76158 16.8003 5.97014C15.2143 6.35685 13.6045 6.26561 11.999 6.26995C11.5905 6.26995 11.1799 6.26561 10.7736 6.2265C10.5129 6.2026 10.2566 6.1157 9.99804 6.04835C9.84162 6.00707 9.76775 5.88976 9.80686 5.73768C9.89376 5.40311 9.98066 5.06636 10.1023 4.74483C10.4586 3.78673 10.9518 2.89816 11.5666 2.08346C12.2119 1.22748 12.9896 0.514884 14.0107 0.130344C15.1035 -0.282439 16.407 0.349771 16.6982 1.4078C16.7416 1.56857 16.746 1.74237 16.772 1.93355L16.7699 1.93138Z" fill="url(#paint2_linear_9494_60190)"/>
  <path d="M6.1092 6.18962C5.58562 6.13748 4.9382 6.10272 4.30164 5.99843C3.99749 5.94847 3.70202 5.78987 3.42828 5.63562C3.13064 5.46833 3.09154 5.15114 3.14368 4.8535C3.26751 4.1496 3.6803 3.61298 4.2104 3.15892C4.76657 2.68313 5.41181 2.38767 6.12658 2.24211C6.35687 2.19431 6.48505 2.03137 6.61323 1.8467C7.05208 1.22318 7.50397 0.612699 8.23395 0.284645C8.79881 0.030457 9.36584 -0.0368918 9.95243 0.180363C10.237 0.286817 10.3609 0.517107 10.4217 0.80171C10.5325 1.31226 10.4651 1.81412 10.3152 2.29859C10.0958 3.00901 9.8438 3.70857 9.60482 4.41248C9.46795 4.8144 9.32022 5.21415 9.18118 5.61607C9.09427 5.86808 8.92047 5.95716 8.65977 5.96367C8.3882 5.97236 8.1188 6.03102 7.84941 6.05492C7.31279 6.10272 6.77617 6.13965 6.11354 6.18962H6.1092Z" fill="url(#paint3_linear_9494_60190)"/>
  <path d="M28.8188 8.59453C29.1555 8.03184 29.4771 7.49088 29.8008 6.94774C30.4938 5.78326 31.1868 4.6166 31.8799 3.45429C31.9538 3.33046 32.0363 3.21097 32.121 3.09365C32.2862 2.86553 32.4991 2.75473 32.7924 2.7656C33.2899 2.78298 33.7874 2.7656 34.2849 2.77646C34.4196 2.77863 34.5543 2.82643 34.7064 2.85684V13.1786H32.221C32.1775 13.0026 32.0993 12.8332 32.0971 12.6637C32.0689 11.3428 32.0559 10.0241 32.032 8.70316C32.0276 8.49242 32.0016 8.27951 31.9212 8.05357C31.8647 8.15785 31.8125 8.2643 31.7539 8.36859C31.1021 9.49396 30.446 10.6193 29.7942 11.7447C29.6291 12.0293 29.3728 12.1314 29.0599 12.1814C28.3604 12.2944 27.915 12.0315 27.5696 11.4058C27.0395 10.4499 26.429 9.54176 25.8489 8.61408C25.7903 8.51849 25.7207 8.42942 25.6295 8.34686C25.5773 9.96106 25.623 11.5709 25.5773 13.1895H22.8356C22.8247 13.0287 22.803 12.8701 22.803 12.7115C22.8008 9.95237 22.803 7.19107 22.8008 4.43194C22.8008 4.02567 22.79 3.61723 22.7965 3.21097C22.803 2.85033 22.8943 2.77212 23.2571 2.77429C23.7263 2.77646 24.1999 2.80036 24.667 2.76777C25.1146 2.73735 25.4166 2.93071 25.636 3.28266C25.9184 3.73455 26.1857 4.1973 26.4594 4.65354C27.2393 5.95489 28.0171 7.25625 28.8209 8.59888L28.8188 8.59453Z" fill="black"/>
  <path d="M81.0207 5.26408C79.9887 6.35469 78.9546 7.44531 77.8965 8.562C78.0334 8.76839 78.1399 8.95306 78.2702 9.12034C79.1827 10.3022 80.0995 11.4776 81.012 12.6594C81.1163 12.7963 81.1966 12.9527 81.3205 13.1548C81.1336 13.1743 81.0207 13.196 80.9099 13.196C80.0952 13.2004 79.2804 13.1721 78.4679 13.2091C77.9704 13.233 77.6445 13.0266 77.3686 12.6529C77.0514 12.2227 76.7386 11.7904 76.3975 11.382C76.1694 11.1082 75.8978 10.8714 75.6306 10.602C75.1961 11.0821 74.868 11.5427 74.9267 12.1793C74.9484 12.4139 74.9593 12.6486 74.968 12.8832C74.9745 13.0809 74.868 13.1939 74.6747 13.196C73.8339 13.2004 72.9931 13.196 72.0741 13.196C72.0589 9.55051 72.0719 5.92453 72.0654 2.26379H74.9049C74.9397 2.53102 74.9962 2.75696 74.9962 2.98291C74.9962 4.44937 74.9853 5.91367 74.9788 7.38013C74.9788 7.46704 74.9788 7.55394 74.9788 7.71688C75.094 7.61477 75.1591 7.56046 75.22 7.5018C75.9065 6.83265 76.5908 6.16134 77.2774 5.49002C77.5142 5.25756 77.7814 5.14241 78.129 5.1511C78.9698 5.17066 79.8127 5.15762 80.6535 5.15762C80.7578 5.15762 80.8642 5.15762 80.9685 5.15762L81.0272 5.2619L81.0207 5.26408Z" fill="black"/>
  <path d="M61.9935 5.1793C62.0131 5.42697 62.0435 5.65509 62.0435 5.8832C62.0457 7.73855 62.0413 9.59391 62.0435 11.4471C62.0435 11.8816 62.0739 12.3139 62.0826 12.7484C62.0891 13.1352 62.0261 13.196 61.6524 13.196C60.9029 13.196 60.1512 13.196 59.356 13.196C59.3039 13.0048 59.2561 12.8223 59.2105 12.6572C58.8651 12.8267 58.5327 13.033 58.172 13.1569C56.9619 13.574 55.8126 13.3828 54.7589 12.6811C53.9768 12.1575 53.6444 11.3667 53.614 10.4521C53.5662 8.92476 53.5401 7.39529 53.5163 5.868C53.5119 5.63988 53.5706 5.41176 53.5988 5.20537C54.0485 5.10978 56.2428 5.12064 56.4448 5.23796C56.4448 5.40959 56.4448 5.61381 56.4448 5.8202C56.4448 6.81522 56.4383 7.81025 56.4448 8.80527C56.4448 9.07684 56.4579 9.34841 56.4905 9.6178C56.573 10.3239 57.0553 10.8127 57.6658 10.8301C58.3154 10.8475 58.9367 10.3413 59.0345 9.66995C59.1019 9.19633 59.1344 8.7162 59.1431 8.23824C59.1605 7.34315 59.1453 6.44589 59.1497 5.5508C59.1497 5.43131 59.1779 5.31182 59.1953 5.17713H61.9935V5.1793Z" fill="black"/>
  <path d="M62.9212 9.15294C62.9212 6.86307 64.5224 5.42702 66.4733 5.06204C67.6313 4.84478 68.761 5.04466 69.8277 5.54434C70.3774 5.8007 70.8358 6.18307 71.1573 6.70665C71.405 7.11074 71.3572 7.32148 70.9357 7.54091C70.4556 7.79075 69.9624 8.02104 69.4606 8.22091C69.3302 8.27305 69.126 8.22091 68.9913 8.15356C68.8175 8.06449 68.6741 7.91458 68.5264 7.78206C67.451 6.81962 66.3082 7.59522 66.0019 8.51638C65.5847 9.77211 66.4168 11.0126 67.6617 10.9735C68.1375 10.9583 68.4981 10.7237 68.7958 10.3674C69.1651 9.92419 69.2607 9.91333 69.7799 10.1892C70.1558 10.3869 70.536 10.5738 70.914 10.7671C71.3376 10.9844 71.392 11.1843 71.1617 11.5927C70.6381 12.5291 69.8234 13.0157 68.7893 13.2221C67.3293 13.5132 65.9476 13.3981 64.6875 12.5312C63.5035 11.7165 62.9169 10.5868 62.9169 9.15076L62.9212 9.15294Z" fill="black"/>
  <path d="M48.0697 2.85908C48.0697 3.00898 48.0697 3.11761 48.0697 3.22406C48.0697 5.56606 48.0697 7.91024 48.0697 10.2522C48.0697 10.6954 48.1783 10.8062 48.6345 10.8062C49.9098 10.8062 51.1851 10.8062 52.4604 10.8062H52.8667C52.9188 10.9388 53.0187 11.0735 53.0144 11.2082C52.9992 11.8578 52.9557 12.5073 52.9232 13.1765H45.1911C45.1585 13.0809 45.0998 12.9701 45.0803 12.8506C45.0542 12.6811 45.0499 12.5073 45.0499 12.3379C45.0477 9.45274 45.0455 6.56761 45.0433 3.6803C45.0433 2.80693 45.0868 2.76566 45.9536 2.78086C46.4598 2.78955 46.966 2.78086 47.4722 2.7939C47.6591 2.79824 47.8459 2.833 48.0675 2.8569L48.0697 2.85908Z" fill="black"/>
  <path d="M42.1691 8.39467C41.9735 8.21652 41.7867 8.0601 41.6129 7.89064C40.5179 6.82392 39.373 7.39747 38.9211 8.47723C38.4432 9.61781 39.0819 10.8062 40.279 10.9778C40.7917 11.0517 41.211 10.8149 41.5803 10.4868C41.7737 10.313 41.9431 10.1132 42.1278 9.91762C42.1843 9.93935 42.2364 9.95456 42.282 9.97845C42.8252 10.2674 43.3683 10.5542 43.9071 10.8453C44.2569 11.0343 44.3069 11.1994 44.1048 11.547C43.7094 12.2292 43.1446 12.7593 42.4102 13.0048C40.8721 13.5175 39.3187 13.5545 37.8761 12.7093C36.3771 11.8295 35.6949 10.4564 35.8687 8.73576C36.0403 7.02162 36.9897 5.85714 38.6191 5.27055C40.0422 4.76001 41.4261 4.88167 42.773 5.54647C43.3857 5.84845 43.8246 6.3351 44.17 6.91082C44.3199 7.16284 44.2873 7.30188 44.0266 7.44092C43.4031 7.76898 42.7752 8.084 42.1691 8.3925V8.39467Z" fill="black"/>
  <path d="M99.8848 13.2004C99.7284 13.2004 99.6285 13.2004 99.5307 13.2004C99.2222 13.1939 99.1245 13.0983 99.1245 12.7941C99.1245 12.2684 99.1331 11.7448 99.1201 11.219C99.1136 11.0061 99.0767 10.7867 99.0158 10.5803C98.9115 10.2284 98.6313 10.0654 98.2902 10.0111C97.986 9.96331 97.7427 10.0958 97.5602 10.337C97.3212 10.6542 97.2474 11.0257 97.2409 11.4102C97.2322 11.8534 97.243 12.2966 97.23 12.7398C97.2191 13.0939 97.117 13.1656 96.7194 13.1548C96.3154 13.1439 96.248 13.0831 96.2458 12.7072C96.2415 12.1554 96.2437 11.6036 96.2415 11.0518C96.2415 11.0148 96.2415 10.9801 96.2415 10.9431C96.2306 10.4543 95.9221 10.0285 95.555 9.99156C95.0813 9.94376 94.5882 10.287 94.5035 10.7802C94.4383 11.1604 94.4339 11.5536 94.4187 11.9403C94.4057 12.301 94.4166 12.6616 94.4166 13.0853C94.145 13.1352 93.8973 13.1809 93.604 13.233C93.5541 13.0701 93.4845 12.9506 93.4824 12.8289C93.4737 11.8252 93.4715 10.8193 93.4824 9.81558C93.4845 9.6244 93.5606 9.43539 93.6192 9.17033C93.982 9.27462 94.3036 9.36804 94.6881 9.47884C94.6555 9.49187 94.7077 9.48535 94.7359 9.45711C95.1465 9.05736 95.6201 9.11168 96.1046 9.27244C96.3175 9.34414 96.5326 9.42018 96.7303 9.52446C96.9367 9.63309 97.1062 9.63526 97.3082 9.50708C97.6797 9.27244 98.0795 9.12254 98.5357 9.15295C99.3873 9.20944 99.9565 9.75475 99.9848 10.6086C100.009 11.3581 99.9935 12.1098 99.9848 12.8615C99.9848 12.9679 99.9218 13.0744 99.8827 13.1961L99.8848 13.2004Z" fill="black"/>
  <path d="M90.519 13.209C88.5898 13.2981 88.0032 11.3624 88.6506 10.1283C88.9309 9.59173 89.3936 9.30495 89.9846 9.21588C90.7493 9.10073 91.4662 9.18546 92.0572 9.74381C92.6546 10.3065 92.8545 11.1733 92.5351 11.962C92.2179 12.7484 91.614 13.1634 90.7623 13.209C90.6819 13.2134 90.5994 13.209 90.519 13.209ZM90.4886 12.3291C91.186 12.3291 91.6183 11.9098 91.6248 11.232C91.6292 10.552 91.1447 9.99582 90.5538 10.0023C89.9042 10.011 89.4284 10.4586 89.4219 11.0647C89.4132 11.8946 89.7803 12.3291 90.4886 12.3291Z" fill="black"/>
  <path d="M87.875 12.1836C87.7621 12.5377 87.6752 12.8701 87.2819 13.0309C86.6975 13.2721 86.1283 13.4372 85.507 13.1482C84.6923 12.768 84.2447 12.1467 84.2121 11.2451C84.1817 10.3717 84.5728 9.72429 85.3527 9.3832C86.1826 9.01822 86.9734 9.06819 87.6839 9.67867C87.799 9.77861 87.8794 9.91982 87.9663 10.0306C87.6817 10.3934 87.3515 10.4195 86.8952 10.1588C86.3738 9.86116 85.8242 9.95893 85.47 10.4086C85.1572 10.8062 85.1311 11.5405 85.4179 11.9142C85.6851 12.2683 86.339 12.5138 86.678 12.2988C87.0343 12.075 87.3797 12.1206 87.7447 12.1489C87.7794 12.151 87.812 12.1662 87.8772 12.1858L87.875 12.1836Z" fill="black"/>
  <path d="M83.1584 12.0033C83.5299 11.9968 83.7537 12.2075 83.7602 12.5769C83.7667 12.9397 83.5234 13.2026 83.1671 13.2134C82.8087 13.2243 82.498 12.9353 82.4893 12.5834C82.4784 12.1793 82.6718 12.0142 83.1584 12.0055V12.0033Z" fill="black"/>
  <defs>
    <linearGradient id="paint0_linear_9494_60190" x1="17.137" y1="7.47137" x2="9.69388" y2="12.7072" gradientUnits="userSpaceOnUse">
    <stop stop-color="#FC1C46"/>
    <stop offset="1" stop-color="#FA880C"/>
    </linearGradient>
    <linearGradient id="paint1_linear_9494_60190" x1="2.48756" y1="8.29694" x2="6.33079" y2="12.4682" gradientUnits="userSpaceOnUse">
    <stop stop-color="#90E518"/>
    <stop offset="1" stop-color="#EBD118"/>
    </linearGradient>
    <linearGradient id="paint2_linear_9494_60190" x1="12.6746" y1="0.971118" x2="15.3729" y2="5.71378" gradientUnits="userSpaceOnUse">
    <stop stop-color="#6A53AE"/>
    <stop offset="1" stop-color="#E02267"/>
    </linearGradient>
    <linearGradient id="paint3_linear_9494_60190" x1="10.9627" y1="1.33181" x2="4.33858" y2="6.15703" gradientUnits="userSpaceOnUse">
    <stop stop-color="#1588DA"/>
    <stop offset="1" stop-color="#3CF41C"/>
    </linearGradient>
  </defs>
</svg>