<?xml version="1.0" encoding="UTF-8"?> <svg xmlns="http://www.w3.org/2000/svg" width="768" height="384" viewBox="0 0 768 384" fill="none"><rect width="768" height="384" fill="#10254A"></rect><path d="M675.814 213.298C673.773 217.072 659.635 234.507 638.104 235.76C616.573 237.013 609.354 233.885 609.354 233.885C609.354 233.885 594.427 238.612 589.084 238.612L588.611 237.517L550.742 237.202L551.058 235.784L524.349 237.036V233.097C524.349 233.097 516.807 239.4 499.681 239.061C482.556 238.722 475.171 235.76 465.43 231.182C465.43 220.94 465.115 192.577 465.115 192.577L459.141 202.031L459.614 236.587L418.451 237.218L417.978 232.348L386.896 238.612L383.286 233.585L382.813 236.571L347.112 238.612L346.49 236.729C346.49 236.729 341.462 239.093 333.604 238.927C325.747 238.762 315.848 236.414 305.792 226.518L305.319 236.414L268.554 239.4L268.396 235.626C268.396 235.626 261.8 236.729 250.641 228.716L250.325 231.08L194.078 235.461L195.489 149.85L238.047 149.693C238.047 149.693 233.807 189.086 234.279 192.734H237.944C237.944 192.734 238.732 158.178 243.13 153.774C248.473 153.774 272.51 154.562 272.51 154.562L272.668 151.261H312.861L312.704 159.588C312.704 159.588 322.445 147.337 348.373 152.836V150.323L385.926 152.206L387.179 150.008L408.71 155.98C408.71 155.98 423.637 153.774 439.974 152.364L441.858 157.705L444.687 152.364L472.342 153.774C472.342 153.774 495.599 142.625 522.308 155.192C522.527 154.448 522.412 153.646 521.992 152.994L567.088 150.796C567.088 150.796 598.825 143.256 612.498 156.602C622.743 154.089 651.903 143.878 671.606 163.52C691.308 183.162 677.856 209.532 675.814 213.298Z" fill="black"></path><path d="M229.015 157.783H204.328L202.783 226.565L242.84 223.74L244.535 201.423H225.633L229.015 157.783Z" fill="white"></path><path d="M281.913 170.354C281.913 176.289 282.196 208.628 271.476 209.473C260.757 210.317 273.171 162.731 273.171 162.731L249.753 162.171C249.753 162.171 243.266 196.207 248.342 210.191C253.418 224.174 262.026 227.276 268.796 227.276C275.567 227.276 278.405 223.172 278.405 223.172L277.979 230.275L297.322 229.249L303.628 160.324H281.913V170.354Z" fill="white"></path><path d="M343.559 155.384L338.31 158.493C338.31 158.493 340.422 151.288 339.153 149.315L337.884 147.334C337.884 147.334 334.353 147.619 330.83 160.324C326.313 158.067 324.902 157.783 321.946 157.783C318.99 157.783 313.197 158.911 312.913 162.873C312.629 166.834 318.557 164.846 318.557 164.846C318.557 164.846 303.746 177.417 304.448 193.303C305.149 209.188 307.411 217.664 314.04 222.746C320.669 227.828 324.902 231.505 335.764 230.235C346.626 228.964 351.568 226.565 351.568 226.565V203.68C348.104 206.378 343.857 207.874 339.468 207.941C332.272 207.941 326.628 204.982 327.338 196.104C328.047 187.226 334.81 180.85 349.337 182.688C349.763 176.194 351.032 162.171 351.032 162.171L347.091 160.332C347.091 160.332 352.876 157.649 353.018 156.386C353.16 155.123 348.777 152.275 343.559 155.384Z" fill="white"></path><path d="M472.907 162.589L450.237 161.318L442.355 182.357L434.315 161.176L410.196 164.285L391.278 160.34C391.278 160.34 377.973 179.816 377.721 180.242C377.469 180.668 378.99 160.324 378.99 160.324L357.125 158.746L355.43 229.493L375.317 228.365L376.026 209.022L390.553 229.493L412.844 225.397L392.949 191.787L411.867 168.208L427.946 200.689L427.379 227.978H451.499L451.215 199.726L472.907 162.589Z" fill="white"></path><path d="M515.534 194.676C521.146 191.638 526.278 189.846 526.278 179.445C526.278 169.044 518.632 158.525 498.934 158.525C479.236 158.525 474.097 162.826 474.097 162.826V226.424C474.097 226.424 480.19 230.614 490.098 230.851C500.006 231.087 516.843 230.969 522.218 225.469C527.594 219.968 529.147 215.549 529.06 211.098C528.973 206.647 528.429 200.942 515.534 194.676ZM495.474 211.84V200.721C497.736 200.847 504.932 199.766 504.932 206.939C504.932 214.113 495.474 211.84 495.474 211.84ZM495.474 190.801V179.8C495.474 179.8 504.932 177.173 504.932 184.109C504.901 192.474 495.474 190.801 495.474 190.801Z" fill="#20E793"></path><path d="M532.725 227.978H553.384L556.364 160.553L530.936 161.989L532.725 227.978Z" fill="#20E793"></path><path d="M615.954 183.99C615.954 157.846 590.399 157.806 584.906 157.806C576.88 157.801 568.917 159.217 561.385 161.989L560.187 229.414H580.492L580.964 208.73L587.27 208.612L594.482 229.414L616.096 225.231L604.729 204.548C611.814 200.141 616.073 192.34 615.954 183.99ZM581.8 193.192L582.281 174.781C582.281 174.781 594.814 172.153 594.814 183.39C594.814 195.228 581.8 193.192 581.8 193.192Z" fill="#20E793"></path><path d="M670.522 172.713C674.337 172.114 678.878 170.796 677.806 169.004C676.734 167.213 673.864 166.968 666.219 168.768C666.581 163.867 666.818 163.741 665.383 160.994C663.949 158.248 660.969 156.331 658.581 156.575C656.192 156.82 657.54 160.04 659.771 162.17C661.243 163.666 662.383 165.457 663.113 167.426C663.113 167.426 652.37 155.857 620.494 163.749L619.422 228.459C684.127 234.101 672.966 180.905 671.248 178.608C671.248 178.608 677.333 184.132 678.767 182.436C680.202 180.739 676.371 175.341 670.522 172.713ZM640.869 210.048C640.869 210.048 642.619 181.528 642.793 181.007C657.871 181.741 658.683 207.696 640.869 210.048Z" fill="#20E793"></path><path d="M666.124 213.173C662.744 213.17 659.549 214.717 657.454 217.372C652.227 215.695 646.561 218.097 644.124 223.02C641.687 227.944 643.212 233.912 647.71 237.06C652.209 240.209 658.33 239.592 662.112 235.609C665.255 238.874 670.066 239.897 674.263 238.193C678.461 236.49 681.202 232.402 681.187 227.867C681.187 220.631 674.093 213.173 666.124 213.173Z" fill="#F8A731"></path><path opacity="0.42" d="M653.836 232.909C649.499 232.999 645.416 230.869 643.005 227.259C643.005 227.488 643.005 227.717 643.005 227.953C643.003 232.497 645.765 236.584 649.98 238.271C654.194 239.957 659.009 238.902 662.136 235.608C665.281 238.856 670.081 239.867 674.267 238.166C678.454 236.465 681.192 232.39 681.187 227.867C681.182 226.906 681.063 225.95 680.832 225.018C677.577 232.909 670.972 233.359 666.203 232.475C668.914 229.776 668.78 224.047 668.181 221.782C664.146 229.65 660.898 232.909 653.836 232.909Z" fill="#F38530"></path><path d="M175.809 206.4V204.2V202H173.609V199.8H171.409V197.6V195.4H169.209V193.2V191V188.8V186.6H167.009V184.4V182.2V180V177.8H164.809V175.6H162.609V173.4V171.2H160.409V169V166.8H162.609V164.6H160.409H158.209V162.4V160.2H156.009V158H153.809V155.8H151.609H149.409H147.209V158H145.009V155.8H142.809V153.6V151.4H140.609V149.2H138.409H136.209H134.009V151.4V153.6V155.8H131.809V153.6H129.609H127.409H125.209V155.8H123.009V158V160.2H120.809H118.609H116.409H114.209V162.4H112.009H109.809V164.6H107.609V166.8H105.409V169H103.209V171.2H101.009V173.4V175.6H98.8088V177.8H96.6088V180V182.2V184.4V186.6H94.4088V188.8V191V193.2V195.4V197.6H92.2088V199.8H90.0088V202H87.8088V204.2V206.4H85.6088V208.6V210.8V213H87.8088V215.2H90.0088V217.4V219.6V221.8V224H92.2088H94.4088H96.6088V226.2V228.4V230.6H98.8088H101.009H103.209V232.8H105.409H107.609H109.809V235H112.009H114.209H116.409H118.609H120.809H123.009H125.209H127.409H129.609H131.809H134.009H136.209H138.409H140.609H142.809H145.009H147.209H149.409H151.609V232.8H153.809H156.009H158.209H160.409H162.609H164.809V230.6H167.009V228.4V226.2V224H169.209H171.409H173.609V221.8V219.6V217.4V215.2V213H175.809H178.009V210.8V208.6V206.4H175.809Z" fill="white"></path><path d="M134.009 158V160.2H136.209V149.2H134.009V155.8H131.809V158H134.009ZM138.409 147H136.209V149.2H138.409V147ZM140.609 151.4V149.2H138.409V151.4H140.609ZM140.609 155.8H142.809V151.4H140.609V155.8ZM142.809 160.2V162.4H145.009V160.2H147.209V158H145.009V155.8H142.809V160.2ZM151.609 158H153.809V155.8H147.209V158H151.609ZM156.009 160.2V158H153.809V160.2H156.009ZM158.209 162.4V160.2H156.009V162.4H158.209ZM160.409 164.6V162.4H158.209V164.6H160.409ZM162.609 166.8V164.6H160.409V166.8H162.609ZM156.009 166.8V169H158.209V171.2H160.409V166.8H156.009ZM160.409 175.6H162.609V171.2H160.409V175.6ZM164.809 177.8V175.6H162.609V177.8H164.809ZM164.809 182.2V186.6H167.009V177.8H164.809V182.2ZM167.009 191V197.6H169.209V199.8H171.409V195.4H169.209V186.6H167.009V191ZM173.609 202V199.8H171.409V202H173.609ZM173.609 206.4H175.809V202H173.609V206.4ZM175.809 210.8V213H178.009V206.4H175.809V210.8ZM173.609 215.2H175.809V213H173.609V215.2ZM171.409 217.4V224H173.609V215.2H171.409V217.4ZM167.009 224V228.4H169.209V226.2H171.409V224H167.009ZM164.809 230.6H167.009V228.4H164.809V230.6ZM162.609 232.8H164.809V230.6H162.609V232.8ZM160.409 235H162.609V232.8H160.409V235ZM160.409 228.4H158.209V230.6H156.009V232.8H160.409V228.4ZM151.609 232.8V235H156.009V232.8H151.609ZM147.209 235H140.609V237.2H151.609V235H147.209ZM136.209 237.2H123.009V239.4H140.609V237.2H136.209ZM120.809 235H112.009V237.2H123.009V235H120.809ZM109.809 232.8H107.609V235H112.009V232.8H109.809ZM105.409 230.6V228.4H103.209V232.8H107.609V230.6H105.409ZM101.009 235H103.209V232.8H101.009V235ZM98.8087 230.6V232.8H101.009V230.6H98.8087ZM96.6087 228.4V230.6H98.8087V228.4H96.6087ZM96.6087 224H92.2087V226.2H94.4087V228.4H96.6087V224ZM92.2087 219.6V215.2H90.0087V224H92.2087V219.6ZM87.8087 213V215.2H90.0087V213H87.8087ZM87.8087 210.8V206.4H85.6087V213H87.8087V210.8ZM90.0087 204.2V202H87.8087V206.4H90.0087V204.2ZM92.2087 199.8H90.0087V202H92.2087V199.8ZM94.4087 197.6H92.2087V199.8H94.4087V197.6ZM96.6087 195.4V186.6H94.4087V197.6H96.6087V195.4ZM98.8087 184.4V177.8H96.6087V186.6H98.8087V184.4ZM101.009 175.6H98.8087V177.8H101.009V175.6ZM103.209 173.4V171.2H101.009V175.6H103.209V173.4ZM105.409 169H103.209V171.2H105.409V169ZM107.609 166.8H105.409V169H107.609V166.8ZM109.809 164.6H107.609V166.8H109.809V164.6ZM114.209 164.6V162.4H109.809V164.6H114.209ZM118.609 162.4H123.009V160.2H114.209V162.4H118.609ZM127.409 160.2V158H125.209V155.8H123.009V160.2H127.409ZM129.609 155.8H131.809V153.6H125.209V155.8H129.609ZM112.009 193.2H114.209V195.4H118.609V193.2H120.809V191H123.009V184.4H120.809V182.2H118.609V180H114.209V182.2H112.009V184.4H116.409V188.8H112.009V184.4H109.809V191H112.009V193.2ZM142.809 193.2H145.009V195.4H149.409V193.2H151.609V191H153.809V184.4H151.609V182.2H149.409V180H145.009V182.2H142.809V184.4H147.209V188.8H142.809V184.4H140.609V191H142.809V193.2Z" fill="black"></path><path d="M118.609 199.8H120.809V202H118.609V199.8ZM142.809 199.8V202H145.009V199.8H142.809ZM116.409 204.2V208.6H118.609V202H116.409V204.2ZM118.609 213H125.209V210.8H120.809V208.6H118.609V213ZM145.009 202V208.6H147.209V202H145.009ZM142.809 210.8H138.409V213H145.009V208.6H142.809V210.8ZM123.009 197.6H120.809V199.8H127.409V197.6H123.009ZM140.609 197.6H136.209V199.8H142.809V197.6H140.609ZM134.009 195.4H127.409V197.6H136.209V195.4H134.009Z" fill="#F89028"></path><path d="M136.209 162.4H134.009V160.2H136.209V162.4ZM127.409 162.4H129.609V158H127.409V160.2H123.009V162.4H127.409ZM116.409 162.4H114.209V164.6H116.409V162.4ZM112.009 164.6H109.809V166.8H112.009V164.6ZM109.809 166.8H107.609V169H109.809V166.8ZM107.609 169H105.409V171.2H107.609V169ZM103.209 175.6H101.009V177.8H103.209V175.6ZM101.009 177.8H98.8087V180H101.009V177.8ZM98.8087 186.6H96.6087V188.8H98.8087V186.6ZM96.6087 197.6H94.4087V199.8H96.6087V197.6ZM94.4087 199.8H92.2087V202H94.4087V199.8ZM92.2087 202H90.0087V204.2H92.2087V202ZM90.0087 208.6V206.4H87.8087V213H90.0087V208.6ZM92.2087 215.2V217.4H94.4087V213H90.0087V215.2H92.2087ZM98.8087 224V221.8H92.2087V224H96.6087V228.4H98.8087V224ZM98.8087 228.4V230.6H101.009V228.4H98.8087ZM101.009 232.8H103.209V230.6H101.009V232.8ZM103.209 226.2V228.4H105.409V226.2H103.209ZM105.409 228.4V230.6H107.609V228.4H105.409ZM109.809 230.6H107.609V232.8H112.009V230.6H109.809ZM120.809 232.8H112.009V235H123.009V232.8H120.809ZM140.609 235H142.809V232.8H140.609V235ZM149.409 235H151.609V232.8H149.409V235ZM151.609 230.6V232.8H156.009V230.6H151.609ZM156.009 230.6H158.209V228.4H156.009V230.6ZM160.409 226.2H158.209V228.4H160.409V226.2ZM160.409 232.8H162.609V230.6H160.409V232.8ZM162.609 230.6H164.809V228.4H162.609V230.6ZM167.009 221.8H164.809V228.4H167.009V224H171.409V221.8H167.009ZM169.209 213V217.4H171.409V215.2H173.609V213H169.209ZM173.609 206.4V213H175.809V206.4H173.609ZM173.609 204.2V202H171.409V204.2H173.609ZM171.409 202V199.8H169.209V202H171.409ZM167.009 197.6V199.8H169.209V197.6H167.009ZM164.809 188.8H167.009V186.6H164.809V188.8ZM164.809 180V177.8H162.609V180H164.809ZM160.409 175.6V177.8H162.609V175.6H160.409ZM160.409 173.4V171.2H158.209V173.4H160.409ZM158.209 171.2V169H156.009V171.2H158.209ZM156.009 166.8H153.809V169H156.009V166.8ZM136.209 235H123.009V237.2H140.609V235H136.209ZM142.809 164.6H145.009V162.4H142.809V164.6ZM145.009 162.4H147.209V160.2H145.009V162.4ZM116.409 210.8H118.609V208.6H116.409V210.8ZM118.609 213V215.2H120.809V213H118.609ZM125.209 215.2H120.809V217.4H127.409V215.2H125.209ZM131.809 217.4H127.409V219.6H136.209V217.4H131.809ZM142.809 215.2H145.009V213H142.809V215.2ZM145.009 210.8H147.209V208.6H145.009V210.8ZM138.409 215.2H136.209V217.4H142.809V215.2H138.409Z" fill="#D9D9D9"></path><path d="M140.609 213H138.409H136.209H134.009H131.809H129.609H127.409H125.209H123.009H120.809V215.2H123.009H125.209H127.409V217.4H129.609H131.809H134.009H136.209V215.2H138.409H140.609H142.809V213H140.609Z" fill="#E2833D"></path><path d="M142.809 202V199.8H140.609H138.409H136.209V197.6H134.009H131.809H129.609H127.409V199.8H125.209H123.009H120.809V202H118.609V204.2V206.4V208.6H120.809V210.8H123.009H125.209V213H127.409H129.609H131.809H134.009H136.209H138.409V210.8H140.609H142.809V208.6H145.009V206.4V204.2V202H142.809Z" fill="#FFA439"></path><path d="M112.009 197.6H114.209V202H112.009V204.2H103.209V202H101.009V197.6H103.209V195.4H112.009V197.6ZM160.409 197.6V195.4H151.609V197.6H149.409V202H151.609V204.2H160.409V202H162.609V197.6H160.409Z" fill="#F0E5BB"></path></svg> 