<?xml version="1.0" encoding="utf-8"?>
<svg xmlns="http://www.w3.org/2000/svg" width="138" height="64" viewBox="0 0 138 64" fill="none">
<rect width="138" height="64" rx="4" fill="#26286D"/>
<g clip-path="url(#clip0_2951_5514)">
<path d="M104.719 51.2503C103.694 51.2503 103.397 51.0656 103.11 50.9057C102.749 51.1061 101.931 51.2503 101.202 51.2503C100.473 51.2503 99.9664 51.0993 99.7426 50.9541C98.9171 51.2577 97.8856 51.2879 96.9387 50.846C96.3014 51.1074 95.6197 51.1631 94.9255 51.1616C92.3728 51.1564 89.82 51.1555 87.2673 51.1616C86.3001 51.1639 85.4055 50.9744 84.668 50.2597C83.775 51.0209 82.7178 51.1709 81.5971 51.1653C78.3151 51.1491 75.0329 51.1541 71.7509 51.1629C70.7665 51.1656 69.8656 50.965 69.1371 50.2482C68.5064 50.7929 67.7821 51.0907 66.9674 51.1315C66.3051 51.1647 65.6403 51.1471 64.9768 51.1607C64.0705 51.1793 63.2154 51.0272 62.488 50.4274C61.7725 50.974 60.9606 51.1576 60.0948 51.1594C59.5477 51.1605 59.0006 51.1538 58.4537 51.1608C57.4055 51.1742 56.4501 50.93 55.6592 50.1541C55.3966 50.8654 54.8765 51.1368 54.1636 51.1372C52.5622 51.1379 50.9605 51.1809 49.3595 51.1603C47.5631 51.1372 45.7674 51.1482 43.9712 51.1541C38.1237 51.173 32.2762 51.1684 26.4286 51.1721C25.1109 51.1729 24.3473 50.4109 24.347 49.0881C24.3456 42.7713 24.3461 36.4546 24.3485 30.1378C24.3486 30.0141 24.3042 29.879 24.4224 29.7355H31.8754C31.9734 29.5376 31.9865 29.3592 31.9795 29.1482C31.832 29.1482 31.6906 29.1482 31.5491 29.1482C29.2308 29.1482 26.9125 29.152 24.5942 29.1466C23.4517 29.1439 22.5151 28.2511 22.5038 27.1086C22.4834 25.025 22.4827 22.9408 22.5041 20.8572C22.5158 19.7216 23.4654 18.8217 24.6007 18.8206C28.3386 18.8172 32.0766 18.8189 35.8145 18.8226C35.8879 18.8227 35.9951 18.7604 36.0416 18.8859C35.1953 19.5644 34.3977 20.284 33.7997 21.1929C34.4277 22.6759 35.0447 24.1329 35.6967 25.6726C36.8417 23.1291 37.9597 20.6884 40.0495 18.8294C42.1386 20.7165 43.2645 23.1532 44.3915 25.6776C45.0402 24.1441 45.6638 22.6697 46.2899 21.1895C45.6779 20.2667 44.8691 19.5504 43.9758 18.8194C44.1654 18.8194 44.2686 18.8194 44.3718 18.8194C49.0734 18.815 53.775 18.8203 58.4765 18.8004C59.9216 18.7943 61.3293 18.8922 62.5686 19.715C63.3773 18.9308 63.6908 18.8062 64.819 18.8062C66.942 18.8062 69.0649 18.8042 71.1879 18.8071C72.1118 18.8084 72.7653 19.2467 73.1824 20.0614C73.2113 20.1178 73.2011 20.215 73.3146 20.2324C73.3791 20.1365 73.4393 20.0379 73.5082 19.9458C74.0081 19.2777 74.6468 18.8299 75.5034 18.8122C76.597 18.7896 77.6918 18.7884 78.7853 18.8132C79.5483 18.8305 80.1502 19.1862 80.5826 19.8229C80.7304 20.0406 80.8172 20.2879 80.9276 20.5277C81.0171 20.4645 81.0217 20.382 81.0506 20.3108C81.4431 19.3441 82.2413 18.8083 83.2938 18.8065C84.1664 18.8051 85.0391 18.7967 85.9116 18.8085C87.2085 18.826 88.182 19.938 88.0077 21.2283C87.9261 21.8319 87.7719 22.4257 87.6471 23.0232C87.4914 23.7692 87.3321 24.5144 87.1675 25.2925C87.6476 25.2925 88.0765 25.2853 88.505 25.2938C89.8745 25.321 90.8549 26.511 90.5999 27.8542C90.4357 28.7192 90.2702 29.5848 90.0177 30.4632C90.18 30.4632 90.3201 30.4632 90.4601 30.4632C93.104 30.4632 95.7479 30.4609 98.3918 30.4641C99.915 30.466 101.072 31.4337 101.379 32.9193C101.523 33.6188 101.378 34.2912 101.262 34.969C101.148 35.6353 101.021 36.299 100.65 36.885C100.177 37.6319 99.487 38.0809 98.6775 38.3164C99.2921 40.2254 98.7687 41.9273 97.905 43.6349C98.2737 43.8546 98.5939 44.2203 98.8542 44.6397C99.9821 43.6855 101.534 43.1521 103.597 43.8361C104.734 43.399 105.874 43.4296 107.006 43.8916C107.659 43.6408 108.126 43.5427 108.755 43.6155C109.085 43.6538 109.399 43.6389 109.717 43.571C110.147 43.4791 110.575 43.5183 110.993 43.6258C111.205 43.6804 111.391 43.6692 111.6 43.6217C113.28 43.2418 115.009 44.038 115.28 46.0105C115.364 46.8714 115.248 47.5335 114.881 48.9825C114.513 50.4314 113.708 51.1721 112.288 51.1678C111.543 51.1655 108.151 51.1688 107.659 51.1688C107.167 51.1688 106.857 51.1186 106.455 50.9579C106.15 51.0515 105.743 51.2503 104.719 51.2503Z" fill="white"/>
<path d="M53.0815 15.1565C52.961 15.0012 52.8251 14.8614 52.6647 14.7497C51.5366 13.9637 50.3833 13.2154 49.1843 12.5434C48.605 12.2187 47.968 12.0288 47.2928 12.0089C47.0811 11.9886 46.531 12.009 46.5036 12.0116C45.6664 12.0917 44.9226 12.4156 44.2448 12.895C42.8847 13.8569 41.9441 15.1699 41.1711 16.6179C41.0892 16.7713 40.9682 16.914 40.9424 17.1962C41.4482 16.6898 41.9426 16.3007 42.4604 15.9405C43.3584 15.3158 44.3077 14.8265 45.4341 14.803C46.1567 14.7879 46.8669 14.8485 47.4857 15.2742C48.0135 15.6374 48.0573 16.1282 47.6228 16.5915C47.3586 16.8732 47.0294 17.0491 46.6741 17.1847C45.5551 17.6121 44.3952 17.8897 43.2241 18.1265L42.5312 18.2129C42.4484 18.2026 42.4624 18.2659 42.5301 18.2537C42.7878 18.2729 42.9831 18.2634 43.2272 18.2532C43.5898 18.2337 43.9526 18.2168 44.3151 18.1943C46.3246 18.0698 48.3298 17.9019 50.3039 17.4857C51.2043 17.2959 52.1089 17.0941 52.8812 16.5526C53.4366 16.1632 53.4932 15.6868 53.0815 15.1565Z" fill="white"/>
<path d="M35.7433 12.7994C35.0814 12.3474 34.3482 12.0626 33.5387 12.0049C33.2475 12.0077 32.9563 12.0105 32.6651 12.0133C32.0916 12.0757 31.5406 12.2298 31.0341 12.4999C29.8316 13.141 28.7121 13.918 27.5746 14.6645C27.3252 14.8283 27.1113 15.0404 26.9488 15.2975C26.6928 15.7025 26.7379 16.0894 27.0852 16.4194C27.2948 16.6186 27.5443 16.7564 27.8061 16.8733C28.7139 17.2785 29.6787 17.4765 30.6501 17.6444C32.7124 18.0008 34.7959 18.1459 36.8828 18.2527C37.1413 18.28 37.7056 18.3043 37.8414 18.3203C37.6986 18.2241 37.1176 18.1529 36.8867 18.1238C35.7293 17.8856 34.5815 17.6123 33.474 17.191C33.0935 17.0462 32.74 16.8596 32.4655 16.5504C32.0978 16.1363 32.1346 15.6779 32.565 15.3295C32.7584 15.173 32.9786 15.0595 33.2172 14.9902C34.4793 14.6239 35.6819 14.7802 36.8266 15.4142C37.6705 15.8817 38.4215 16.4768 39.1433 17.1114C39.1546 17.1015 39.1656 17.0912 39.1763 17.0806C38.3773 15.3766 37.3201 13.8762 35.7433 12.7994Z" fill="white"/>
<path d="M79.2438 36.5153C78.3378 36.6005 77.4525 36.5465 76.5685 36.5565C75.7744 36.5655 74.9802 36.5628 74.186 36.5572C73.4147 36.5517 72.9596 36.1053 73.0019 35.3325C73.0381 34.6717 73.1544 34.0131 73.3639 33.3837C73.5979 32.6808 74.168 32.3531 75.0647 32.3525C77.7206 32.3508 80.3764 32.3519 83.0323 32.3519C83.7614 32.3519 84.4905 32.3516 85.2196 32.3523C85.3236 32.3524 85.4287 32.3486 85.5314 32.3618C86.2665 32.4558 86.5841 32.855 86.5051 33.5899C86.3937 34.6255 86.0223 35.5297 85.3136 36.3252C83.2281 38.6661 81.1778 41.0383 79.1139 43.3985C78.6005 43.9856 78.0479 44.5327 77.4412 45.0134C77.4858 45.1463 77.5781 45.0923 77.6435 45.0885C79.3866 44.9876 81.1312 45.0524 82.875 45.0449C83.8416 45.0407 84.3088 45.6211 84.1401 46.5649C84.0555 47.0379 83.9749 47.5126 83.8636 47.9797C83.6813 48.7456 83.2035 49.147 82.4143 49.2277C82.2466 49.2448 82.0772 49.2535 81.9086 49.2536C78.5106 49.255 75.1127 49.2549 71.7147 49.2545C70.4821 49.2543 70.1313 48.8241 70.3411 47.6105C70.5026 46.6772 70.8832 45.8697 71.5183 45.1538C73.6161 42.7891 75.6889 40.4021 77.773 38.0252C78.168 37.5747 78.5935 37.1543 79.0492 36.7645C79.1224 36.7019 79.2371 36.6667 79.2438 36.5153Z" fill="#26286D"/>
<path d="M91.731 42.8466C91.5893 43.5758 91.4519 44.2826 91.3166 44.9789C91.4946 45.0724 91.6399 45.0382 91.7792 45.0385C93.1722 45.0414 94.5652 45.0387 95.9582 45.0408C97.0299 45.0423 97.5024 45.6028 97.3257 46.6629C97.2531 47.0986 97.1818 47.5349 97.0905 47.9669C96.9324 48.7146 96.4962 49.1135 95.7395 49.2153C95.5469 49.2413 95.3509 49.2528 95.1564 49.253C92.5137 49.2554 89.8709 49.2551 87.2281 49.2543C85.987 49.254 85.6146 48.785 85.8514 47.5746C86.6499 43.4944 87.4386 39.4123 88.2314 35.331C88.3329 34.8083 88.4263 34.2838 88.5414 33.7641C88.7423 32.8569 89.3625 32.355 90.2916 32.3535C92.9604 32.349 95.6292 32.3488 98.2981 32.3537C99.1477 32.3553 99.6538 32.9384 99.5357 33.7776C99.4686 34.2535 99.3835 34.728 99.2814 35.1976C99.0818 36.1161 98.5462 36.5509 97.6029 36.5562C96.1709 36.5643 94.7388 36.5584 93.3068 36.5584H92.9617C92.8354 37.2418 92.7117 37.9112 92.5784 38.6323C93.0247 38.6323 93.4239 38.6301 93.8232 38.6327C94.5389 38.6374 95.256 38.6183 95.9698 38.6585C96.7064 38.7 97.1162 39.1607 97.0658 39.8929C97.0195 40.5668 96.875 41.2327 96.6631 41.8737C96.4611 42.4848 95.9664 42.7687 95.3517 42.8156C94.3515 42.892 93.3482 42.8313 92.3463 42.8462C92.1534 42.849 91.9603 42.8466 91.731 42.8466Z" fill="#26286D"/>
<path d="M65.6368 49.2389C65.2466 49.2389 64.8543 49.2651 64.4667 49.2334C63.6849 49.1694 63.3325 48.7565 63.4476 47.9848C63.5854 47.0602 63.7749 46.1429 63.9531 45.2246C64.6708 41.525 65.3928 37.8262 66.1134 34.1272C66.1408 33.9867 66.1657 33.8457 66.199 33.7066C66.4039 32.851 66.9876 32.3711 67.8724 32.3546C68.5753 32.3415 69.2788 32.3442 69.9818 32.3539C70.8569 32.366 71.2941 32.8591 71.1376 33.7133C70.7723 35.7074 70.3817 37.6969 69.9964 39.6873C69.4876 42.3156 68.9681 44.9418 68.4652 47.5712C68.2398 48.7492 67.656 49.2531 66.4572 49.2546C66.1838 49.255 65.9103 49.2547 65.6368 49.2547C65.6368 49.2494 65.6368 49.2442 65.6368 49.2389Z" fill="#26286D"/>
<path d="M62.2075 29.5871C62.8098 26.7697 63.4125 23.9496 64.0158 21.1295C64.0742 20.8567 64.2206 20.6932 64.5239 20.6936C66.7504 20.6969 68.977 20.6958 71.2035 20.6973C71.2411 20.6973 71.2786 20.7134 71.308 20.72C71.4755 20.821 71.4899 20.9543 71.4516 21.1267C71.3276 21.6847 71.2198 22.2462 71.102 22.8056C71.0283 23.1557 70.7787 23.2359 70.459 23.2341C69.3522 23.2282 68.2455 23.2307 67.1387 23.2334C66.998 23.2337 66.8521 23.2026 66.6928 23.2839C66.6403 23.52 66.5844 23.7712 66.5183 24.0683C67.0831 24.0683 67.6261 24.0683 68.169 24.0683C68.794 24.0683 69.4191 24.0639 70.044 24.07C70.4127 24.0737 70.5027 24.1884 70.428 24.5523C70.3314 25.0231 70.228 25.4926 70.121 25.9612C70.0249 26.3823 69.9117 26.475 69.4784 26.4763C68.3332 26.4797 67.188 26.4775 66.0282 26.4775C65.9353 26.7428 65.8725 27.0013 65.8623 27.3165H69.9799C70.1682 27.4582 70.1766 27.5869 70.1425 27.7405C70.0186 28.2988 69.9014 28.8586 69.7856 29.4186C69.723 29.7215 69.5424 29.8529 69.2341 29.8523C67.0336 29.8486 64.8331 29.8496 62.6327 29.8514C62.4515 29.8516 62.2935 29.8255 62.2075 29.5871Z" fill="#26286D"/>
<path d="M84.8144 27.1971H88.5734C88.7448 27.3365 88.7456 27.4715 88.7134 27.6203C88.5815 28.2296 88.4514 28.8392 88.3243 29.4494C88.268 29.7196 88.1047 29.8502 87.8323 29.85C85.6461 29.8486 83.4599 29.847 81.2737 29.8444C81.2358 29.8444 81.1978 29.8305 81.1685 29.8248C80.8864 29.6657 81.0162 29.4289 81.0583 29.23C81.4777 27.248 81.9067 25.2681 82.3322 23.2874C82.4794 22.6018 82.6233 21.9156 82.7702 21.23C82.8662 20.7821 82.9721 20.6963 83.4311 20.6956C84.1729 20.6945 84.9147 20.695 85.6565 20.6955C85.8238 20.6957 86.003 20.665 86.1485 20.9398C85.7187 22.9556 85.273 25.0462 84.8144 27.1971Z" fill="#26286D"/>
<path d="M109.412 49.2102C109.258 49.0461 109.274 48.912 109.305 48.7641C109.407 48.2679 109.493 47.7682 109.596 47.2722C109.626 47.129 109.645 46.9942 109.604 46.8606C109.24 46.7497 109.068 46.8175 108.958 47.1897C108.836 47.5994 108.769 48.0252 108.679 48.444C108.506 49.2427 108.313 49.3807 107.495 49.2773C107.394 49.2645 107.296 49.2259 107.223 49.2063C107.086 49.0684 107.091 48.9337 107.119 48.7852C107.297 47.8664 107.461 46.9447 107.648 46.0279C107.747 45.5447 108.626 45.2836 108.989 45.6107C109.1 45.7103 109.089 45.8438 109.116 45.9929C109.413 45.6663 109.744 45.4326 110.193 45.4302C110.637 45.4279 110.976 45.5948 111.166 46.0484C111.538 45.6091 111.983 45.3792 112.549 45.4407C113.101 45.5006 113.388 45.8058 113.396 46.3669C113.403 46.9313 113.211 47.4668 113.136 48.0199C113.104 48.251 113.048 48.4788 113.001 48.7078C112.921 49.1017 112.766 49.2587 112.376 49.2777C112.108 49.2907 111.828 49.3353 111.593 49.1927C111.441 49.0537 111.468 48.9015 111.499 48.7444C111.597 48.247 111.688 47.7479 111.789 47.2511C111.818 47.1083 111.843 46.9728 111.774 46.8312C111.419 46.6944 111.253 46.9084 111.148 47.1764C110.99 47.5774 110.952 48.0098 110.868 48.4297C110.706 49.2302 110.513 49.371 109.695 49.2788C109.594 49.2674 109.495 49.2309 109.412 49.2102Z" fill="#26286D"/>
<path d="M102.467 47.8703C102.815 48.0598 102.916 48.3622 102.903 48.6745C102.89 48.9753 102.612 49.0786 102.363 49.1703C102.03 49.2929 101.685 49.3576 101.332 49.3603C99.7942 49.3718 98.9617 47.9641 99.7081 46.6154C100.376 45.4086 101.864 45.1798 102.948 45.6574C103.083 45.7168 103.188 45.8134 103.228 45.9618C103.115 46.5985 102.751 46.8389 102.136 46.6843C101.627 46.5562 101.207 46.735 101.03 47.1593C100.917 47.4298 100.915 47.6982 101.11 47.9305C101.302 48.159 101.565 48.1648 101.828 48.092C102.04 48.0334 102.244 47.9487 102.467 47.8703Z" fill="#26286D"/>
<path d="M99.3061 48.0897C99.3737 48.3955 99.2751 48.696 99.1637 48.9787C99.0258 49.3288 98.1111 49.4179 97.8999 49.1208C97.7449 48.9028 97.9256 48.1412 98.1697 47.9834C98.4285 47.8162 99.0358 47.8673 99.3061 48.0897Z" fill="#26286D"/>
<path d="M49.6823 32.8161C49.5221 31.2355 48.8276 29.882 47.579 28.8514C46.3984 27.8769 44.9925 27.5409 43.5124 27.4907C42.069 27.4417 40.6232 27.4603 39.1785 27.4592C38.0981 27.4584 37.0166 27.4444 35.9378 27.4898C34.9142 27.5329 34.2468 28.0961 33.9909 29.0999C33.8082 29.8167 33.68 30.5478 33.5385 31.2746C32.6847 35.6629 31.8302 40.051 30.9853 44.4409C30.7766 45.5252 30.5178 46.6013 30.385 47.6988C30.3208 48.2293 30.4345 48.7157 30.9267 49.0279C31.2328 49.222 31.5834 49.2768 31.9364 49.2803C32.8088 49.289 33.6814 49.2918 34.5537 49.2811C35.7955 49.2659 36.5764 48.6098 36.8152 47.3885C37.0891 45.9874 37.3553 44.5848 37.6339 43.1353C38.8268 43.1353 39.9841 43.1255 41.1412 43.1375C42.9952 43.1568 44.6627 42.5877 46.1023 41.4501C48.8891 39.2479 50.0373 36.32 49.6823 32.8161ZM42.1107 37.2C41.8378 37.4748 41.4727 37.6002 41.0917 37.6486C40.3275 37.7456 39.5604 37.6723 38.7242 37.7008C39.0469 36.0676 39.3558 34.504 39.6729 32.8993C40.5033 32.9234 41.32 32.8194 42.1294 32.9688C42.6901 33.0724 43.0284 33.4598 43.1273 33.9948C43.356 35.2329 42.9953 36.3095 42.1107 37.2Z" fill="#26286D"/>
<path d="M61.1004 46.0757C60.6338 44.922 60.2959 43.7155 59.6694 42.5679C59.7967 42.5003 59.9078 42.4397 60.0203 42.3818C60.5713 42.0981 61.044 41.7194 61.4375 41.2388C62.5832 39.8394 62.9975 38.2129 62.9344 36.438C62.907 35.6683 62.7067 34.948 62.2695 34.3078C61.4537 33.1133 60.2663 32.5441 58.8718 32.4276C56.7415 32.2496 54.6035 32.365 52.4692 32.3639C51.6483 32.3635 51.0692 32.9194 50.8826 33.7299C50.8214 33.9955 50.7754 34.2647 50.7233 34.5324C50.0279 38.1044 49.3268 41.6753 48.6416 45.2492C48.4606 46.1933 48.2159 47.1279 48.1302 48.0874C48.0694 48.7684 48.3977 49.1407 49.0697 49.2269C49.2112 49.2451 49.3549 49.2528 49.4977 49.2535C50.0577 49.2565 50.6177 49.256 51.1777 49.2545C52.374 49.2514 52.9245 48.777 53.1493 47.5918C53.3743 46.4053 53.6188 45.2224 53.8554 44.0342H55.2168C55.316 44.1107 55.3221 44.2056 55.3506 44.2913C55.7767 45.5732 56.2053 46.8542 56.6302 48.1365C56.855 48.8151 57.316 49.2053 58.0322 49.2369C58.8511 49.273 59.6735 49.2964 60.4907 49.226C61.4944 49.1395 61.9473 48.4137 61.6163 47.4633C61.454 46.9974 61.2853 46.533 61.1004 46.0757ZM56.2099 39.7703C55.7067 39.8485 55.2032 39.8342 54.6531 39.8155C54.872 38.7101 55.0806 37.6561 55.299 36.5532C55.8723 36.585 56.4399 36.4934 57.0027 36.6293C57.5428 36.7597 57.7918 37.0476 57.8561 37.6006C57.9861 38.7176 57.3154 39.5983 56.2099 39.7703Z" fill="#26286D"/>
<path d="M62.3187 24.0795C62.7686 22.4141 62.0671 21.2295 60.3883 20.8369C59.9814 20.7417 59.5693 20.6948 59.1513 20.6951C57.9404 20.6959 56.7295 20.6953 55.5186 20.6954C54.8335 20.6954 54.7781 20.7454 54.6396 21.4027C54.2834 23.0934 53.9211 24.7828 53.5629 26.473C53.3396 27.5267 53.1193 28.5809 52.9062 29.5942C52.9999 29.8658 53.1888 29.8514 53.3736 29.8511C54.0376 29.8501 54.7017 29.8508 55.3657 29.8507C56.0878 29.8507 56.1229 29.819 56.2688 29.1267C56.4185 28.4168 56.5757 27.7085 56.7312 26.9925C56.9309 26.9907 57.0975 26.9572 57.2923 27.0201C57.4712 27.7784 57.6524 28.5489 57.8349 29.319C57.9406 29.7646 58.0429 29.8483 58.5056 29.8499C59.2999 29.8528 60.0942 29.8477 60.8884 29.8525C61.1299 29.8539 61.3312 29.8111 61.4064 29.5101C61.0822 28.5109 60.7501 27.487 60.4115 26.4432C61.3318 25.8541 62.0331 25.1366 62.3187 24.0795ZM58.2198 24.5223C57.9114 24.534 57.6022 24.5245 57.2529 24.5245C57.3532 24.04 57.4461 23.5914 57.544 23.118C57.8947 23.118 58.2294 23.1214 58.564 23.1169C58.7978 23.1138 58.9201 23.245 58.9819 23.4489C59.133 23.9479 58.7426 24.5025 58.2198 24.5223Z" fill="#26286D"/>
<path d="M80.0301 27.9012C79.7205 25.6731 79.4129 23.4447 79.1003 21.217C79.0405 20.7915 78.9206 20.6967 78.4805 20.6957C77.6472 20.6937 76.8125 20.7236 75.9809 20.6848C75.4486 20.6599 75.1395 20.874 74.8905 21.3219C73.6092 23.6272 72.3098 25.9225 71.0166 28.2213C70.7563 28.684 70.4959 29.1467 70.2451 29.5923C70.3283 29.8592 70.4901 29.8506 70.6484 29.8505C71.4296 29.8502 72.211 29.8444 72.9922 29.8531C73.301 29.8565 73.5102 29.7263 73.6571 29.4641C73.8083 29.1944 73.968 28.9296 74.1143 28.6794H76.9381C77.1145 29.0522 76.9615 29.5123 77.3436 29.8484C78.1705 29.8484 79.0284 29.8498 79.8863 29.8472C80.0573 29.8466 80.1834 29.7646 80.2637 29.5698C80.1885 29.0331 80.1088 28.4672 80.0301 27.9012ZM75.3265 26.112C75.7424 25.3062 76.1425 24.5312 76.5426 23.7561C76.5715 23.7636 76.6003 23.771 76.6292 23.7785C76.6988 24.5484 76.7684 25.3183 76.8402 26.112H75.3265Z" fill="#26286D"/>
<path d="M105.883 45.5135C105.527 45.4162 105.165 45.4082 104.802 45.4637C103.712 45.6301 102.853 46.5735 102.846 47.4966C102.829 48.2056 103.07 48.672 103.562 48.9963C104.734 49.7684 106.465 49.2619 107.043 47.9849C107.536 46.8962 107.036 45.8291 105.883 45.5135ZM104.897 48.1251C104.551 48.126 104.34 47.9127 104.342 47.5635C104.346 47.0869 104.753 46.6455 105.184 46.6519C105.511 46.6567 105.704 46.8801 105.702 47.2512C105.7 47.7493 105.355 48.1238 104.897 48.1251Z" fill="#26286D"/>
</g>
<defs>
<clipPath id="clip0_2951_5514">
<rect width="93.0232" height="40" fill="white" transform="translate(22.4883 12)"/>
</clipPath>
</defs>
</svg>