<?xml version="1.0" encoding="utf-8"?>
<svg xmlns="http://www.w3.org/2000/svg" xmlns:xlink="http://www.w3.org/1999/xlink" x="0px" y="0px" viewBox="0 0 177 100" style="enable-background:new 0 0 177 100;">
  <path d="M11.4673 25.4144C11.4264 13.5856 18.9836 7.0322 32.8724 6.98551C42.8746 6.9505 44.6545 13.4922 44.6662 15.8673C44.6837 20.4191 38.2295 25.251 38.2295 25.251C38.2295 25.251 38.5854 28.0813 44.1118 28.0638C49.6381 28.0463 55.0244 24.3932 54.9894 15.2604C54.9486 4.7563 43.9601 -0.0405908 33.1 0.000258631C24.0139 0.0352724 -0.0872967 1.31328 0.000237811 25.2452C0.076101 46.5044 40.1611 48.3777 40.2136 61.9922C40.2661 76.7738 23.6754 80.7537 18.0907 80.7771C12.5002 80.7946 10.2009 76.7855 10.1951 74.5855C10.1542 62.6166 22.0589 59.2786 22.0589 59.2786C22.0589 58.3974 21.3587 54.4059 16.7485 54.4234C4.86716 54.4584 0.134457 64.6824 0.169471 74.6613C0.198649 83.1464 6.19768 88.4451 15.2546 88.4159C32.5689 88.3517 52.0949 79.9017 52.0249 61.1285C51.9607 43.5749 11.5198 38.9881 11.4673 25.4144V25.4144Z" fill="#1B2B38"/>
  <path d="M176.528 72.4438C176.388 72.1111 176.003 72.1928 175.489 72.613C173.523 74.2353 169.029 78.8279 158.514 78.8688C139.349 78.9388 136.029 47.3447 136.029 47.3447C136.029 47.3447 150.63 36.4321 152.911 32.0378C155.193 27.6378 147.934 26.6632 147.934 26.6632C147.934 26.6632 137.715 39.099 130.479 42.7521C131.255 37.3483 136.607 25.0176 136.933 17.9273C137.26 10.837 128.402 12.5643 126.99 13.2471C127.001 16.34 119.181 44.4444 116.334 59.8913C114.659 62.564 112.266 65.6336 110.125 65.6453C108.882 65.6453 108.426 63.346 108.415 60.043C108.397 55.4679 110.93 48.1384 110.912 43.6858C110.901 40.6046 109.494 40.4178 108.281 40.4236C108.012 40.4236 106.547 40.4645 106.285 40.4645C103.163 40.4762 104.184 37.7976 101.383 37.8093C92.7694 37.8385 81.8042 47.2397 81.3316 61.4378C78.4254 63.3635 74.358 65.7853 72.2805 65.797C70.1038 65.8028 69.5611 63.7837 69.5553 62.0388C69.5436 58.981 74.5039 40.803 74.5039 40.803C74.5039 40.803 80.8005 39.1865 83.5549 38.6496C85.6382 38.247 86.216 38.0952 87.0388 37.0857C87.8616 36.0819 89.4256 34.0045 90.7036 32.1371C91.9816 30.2696 90.7269 28.8282 88.3635 28.8399C85.2648 28.8516 76.9723 30.8065 76.9723 30.8065C76.9723 30.8065 80.9522 13.6264 80.9522 13.2763C80.9522 12.9145 80.4854 12.7452 79.8318 12.7511C78.3204 12.7511 75.6301 13.5681 73.9028 14.1808C71.2651 15.1203 69.1176 18.3591 68.6857 19.8647C68.2539 21.3703 65.2719 33.1583 65.2719 33.1583C65.2719 33.1583 49.2998 38.673 47.1172 39.5016C46.9713 39.5541 46.8896 39.6825 46.8896 39.8167C46.8896 39.9568 48.722 46.9479 52.4627 46.9362C55.1587 46.9245 63.0135 43.7091 63.0135 43.7091C63.0135 43.7091 58.9694 59.8096 58.9928 65.1551C59.0044 68.5981 60.6151 72.6247 67.3319 72.6013C73.5935 72.578 79.0498 69.3742 82.1135 67.1275C83.7884 71.3642 87.7449 72.5313 90.4468 72.5196C96.5042 72.4963 101.179 67.6877 101.762 67.04C102.55 68.8957 104.4 72.4671 108.631 72.4496C111.023 72.4438 113.503 69.7477 115.33 67.1684C115.301 67.8161 115.307 68.3588 115.353 68.7907C116.083 75.455 125.98 71.5392 126.505 70.6055C126.838 65.7853 126.628 55.9289 128.554 49.8482C131.104 70.5997 140.797 84.5644 158.21 84.5002C167.95 84.4652 172.933 81.6641 175.011 79.3532C177.409 76.6921 176.925 73.4242 176.522 72.4496L176.528 72.4438ZM92.962 65.6044C84.5995 65.6336 95.518 43.9484 102.655 43.9192C102.667 46.7145 102.509 65.5694 92.962 65.6044Z" fill="#1B2B38"/>
  <path d="M160.854 72.2517C168.405 72.2226 174.253 67.2506 175.321 65.6341C176.704 63.5275 173.716 60.3529 172.765 60.4112C170.384 62.693 167.892 65.4532 162.296 65.4707C155.707 65.4941 157.201 58.2462 157.201 58.2462C157.201 58.2462 169.876 59.886 174.971 50.7708C176.599 47.8529 176.669 43.8205 176.009 42.0815C175.338 40.3133 171.668 37.1271 165.803 37.6231C158.596 38.23 149.516 45.7463 147.52 54.774C145.915 62.0277 148.949 72.2926 160.86 72.2517H160.854ZM168.907 41.8306C170.092 41.7897 169.987 43.7447 169.666 45.793C169.234 48.5649 165.412 55.6085 158.146 55.3401C158.637 51.2318 164.046 41.9998 168.907 41.8306Z" fill="#1B2B38"/>
  <path d="M75.3558 94.8643C76.7505 94.8643 77.9234 96.0372 77.9234 97.4319C77.9234 98.8267 76.7505 99.9996 75.3558 99.9996C73.961 99.9996 72.7881 98.8267 72.7881 97.4319C72.7881 96.0372 73.961 94.8643 75.3558 94.8643Z" fill="#1B2B38"/>
  <path d="M79.8847 81.46H84.6583V92.1333C84.6583 94.2867 85.8021 95.8448 88.3406 95.8448C90.8791 95.8448 91.9995 94.2867 91.9995 92.1333V81.46H96.7731V92.2676C96.7731 96.796 94.182 99.9939 88.3406 99.9939C82.4991 99.9939 79.8789 96.7727 79.8789 92.2967V81.46H79.8847Z" fill="#1B2B38"/>
  <path d="M101.231 93.5805C102.538 94.8876 104.563 95.9847 107.043 95.9847C108.654 95.9847 109.634 95.302 109.634 94.4266C109.634 93.3879 108.461 92.9794 106.524 92.5709C103.524 91.9698 99.317 91.2053 99.317 86.8928C99.317 83.8349 101.908 81.1914 106.577 81.1914C109.494 81.1914 112.033 82.0667 113.97 83.7299L111.403 87.0854C109.874 85.8307 107.884 85.2005 106.273 85.2005C104.662 85.2005 104.12 85.8307 104.12 86.6185C104.12 87.5756 105.24 87.9024 107.259 88.2817C110.259 88.9119 114.408 89.7815 114.408 93.9014C114.408 97.5604 111.706 99.988 106.822 99.988C103.139 99.988 100.572 98.8442 98.7451 97.0935L101.231 93.5746V93.5805Z" fill="#1B2B38"/>
</svg>