<?xml version="1.0" encoding="utf-8"?>
<svg xmlns="http://www.w3.org/2000/svg" width="138" height="64" viewBox="0 0 138 64" fill="none">
<rect width="138" height="64" rx="4" fill="black"/>
<g clip-path="url(#clip0_2895_8753)">
<path d="M23.5755 12.9983C23.6493 13.2444 24.7565 17.2794 26.0359 21.954C27.3153 26.6287 28.5455 30.8851 28.7669 31.4264C29.6772 33.6407 30.8336 34.2312 34.2781 34.2312H36.7384L36.9845 33.2963C37.1813 32.5828 38.9281 25.7184 40.0845 21.0683C40.2321 20.4532 40.5274 21.3143 41.6837 25.9398C42.4711 29.0152 43.3568 31.8939 43.652 32.3613C44.4885 33.7391 45.8417 34.2312 48.7204 34.2312H51.2053L51.4514 33.1732C51.599 32.6074 52.3125 29.8764 53.0752 27.0962C55.3387 18.7802 56.9379 12.8015 56.9379 12.6785C56.9379 12.4817 54.0839 12.5801 53.1736 12.8507C51.8204 13.2198 50.6886 14.3269 50.2458 15.7047C50.049 16.3444 49.3847 19.3461 48.7942 22.3477C48.2283 25.3493 47.7116 27.7851 47.6624 27.7359C47.6132 27.7113 46.9243 24.8572 46.1124 21.4128C45.3005 17.9683 44.4639 14.7944 44.2671 14.3515C43.6274 12.9737 42.6187 12.5555 40.1583 12.6293C36.8368 12.7523 36.8861 12.6785 35.0408 20.4532C34.2289 23.8977 33.4908 26.9978 33.417 27.3422C33.2939 27.7605 32.8511 25.989 31.9899 21.8064C31.2764 18.4111 30.5383 15.3111 30.3169 14.9174C29.4312 13.269 28.0042 12.6047 25.2486 12.5801C23.6493 12.5801 23.4525 12.6293 23.5755 12.9983Z" fill="white"/>
<path d="M81.0493 12.7523C81.0493 13.515 86.093 31.328 86.5359 32.1399C87.397 33.7145 88.701 34.2312 91.7519 34.2312H94.2368L95.9345 27.4652C96.8694 23.7501 97.6813 20.6992 97.7551 20.6992C97.8289 20.6992 98.3948 22.7167 98.9853 25.2017C100.314 30.7375 100.781 32.1645 101.642 33.0502C102.504 33.9606 103.562 34.2312 106.317 34.2312H108.581L108.95 32.9272C109.147 32.2383 110.106 28.72 111.066 25.1279C113.157 17.3286 114.264 13.3182 114.412 12.8507C114.486 12.5801 114.141 12.5309 112.443 12.6293C109.983 12.7523 108.728 13.4166 107.99 14.942C107.744 15.4587 107.055 18.3127 106.465 21.3143C105.874 24.2914 105.333 26.9978 105.259 27.3422C105.161 27.7605 104.62 25.8906 103.562 21.4374C102.7 17.8452 101.839 14.573 101.642 14.1547C101.126 13.0721 99.9202 12.5801 97.7797 12.5801C95.5654 12.5801 94.6797 12.9983 94.0892 14.3761C93.8432 14.942 93.0066 18.2143 92.2193 21.6342C91.2844 25.5954 90.7185 27.6867 90.5955 27.416C90.4971 27.17 89.9558 24.5866 89.3899 21.6834C87.8645 13.6134 87.3478 12.8753 83.239 12.6293C81.8612 12.5555 81.0493 12.6047 81.0493 12.7523Z" fill="white"/>
<path d="M65.2786 13.2936C61.588 14.7452 58.8078 18.2389 58.1681 22.2247C57.3316 27.6621 60.6039 32.3614 66.3119 33.8622C67.9849 34.3296 69.1659 34.305 71.2818 33.8622C76.2271 32.8288 79.155 29.8272 79.8193 25.1771C80.2375 22.1017 79.5486 18.977 77.974 16.9103C76.4978 14.9667 73.2747 13.6627 70.5437 13.8841C67.6159 14.1055 64.6881 16.2214 64.0484 18.5834C63.5071 20.5763 64.6143 23.258 66.3365 24.193C66.7794 24.439 67.1484 24.5866 67.1976 24.5374C67.2468 24.4882 67.1238 24.1438 66.9024 23.7501C66.7056 23.3565 66.5333 22.4461 66.5333 21.708C66.5333 20.5517 66.6318 20.3056 67.3453 19.5921C68.3294 18.608 69.6088 18.2881 71.0358 18.731C72.4382 19.1493 73.3239 20.1334 73.816 21.8064C74.5787 24.4636 73.7914 27.2684 71.8723 28.6216C70.7898 29.4089 67.6897 29.4335 66.0167 28.6708C63.6547 27.5883 62.1539 25.3986 61.9325 22.7168C61.6372 19.0508 63.1873 15.9508 66.6564 13.392C67.2714 12.9246 67.3206 12.8507 66.9024 12.8507C66.6318 12.8507 65.8936 13.0476 65.2786 13.2936Z" fill="#0B84FF"/>
<path d="M66.484 39.9885C63.9991 40.8742 62.5967 42.8671 62.5967 45.4997C62.5967 50.322 67.665 53.053 71.6508 50.3712C73.2008 49.3379 73.9143 48.0339 73.9143 46.2132V44.8108H70.8389H67.7634V45.7949V46.7791H69.4857C70.5436 46.7791 71.2079 46.8775 71.2079 47.0497C71.2079 48.1815 69.5103 49.1164 67.9849 48.8704C64.3435 48.2553 64.688 42.3504 68.3539 42.3504C69.0428 42.3504 69.6333 42.5227 70.0516 42.8425C70.519 43.2116 71.0357 43.3346 72.1675 43.3346C73.004 43.3346 73.6683 43.2608 73.6683 43.1378C73.6683 43.0393 73.4468 42.6211 73.2008 42.2028C71.9214 40.0869 68.9198 39.1274 66.484 39.9885Z" fill="white"/>
<path d="M99.3299 40.1113C97.5831 40.9232 96.8696 42.7438 97.6323 44.3677C98.0997 45.3272 98.8871 45.8685 100.88 46.5328C102.578 47.1233 102.947 47.4185 102.947 48.1566C102.947 49.3868 100.978 49.5344 100.437 48.3535C100.166 47.7876 100.043 47.7384 98.7886 47.8122C97.4355 47.886 97.4108 47.886 97.4601 48.6241C97.5339 49.559 98.8625 50.8384 100.166 51.1829C103.217 52.044 105.899 50.4694 105.899 47.8368C105.899 46.3606 105.087 45.4994 102.873 44.6629C100.732 43.851 100.117 43.3589 100.363 42.6208C100.659 41.6613 102.701 41.7597 102.701 42.7192C102.701 43.0145 103.07 43.0883 104.324 43.0883C105.874 43.0883 105.924 43.0637 105.776 42.5224C105.555 41.7843 104.89 40.874 104.128 40.3081C103.168 39.5946 100.659 39.4962 99.3299 40.1113Z" fill="white"/>
<path d="M32.2112 40.3081C32.4573 40.9478 36.0248 51.0599 36.0248 51.1337C36.0248 51.1829 36.8367 51.2075 37.8455 51.2075H39.6415L41.5114 45.967C42.5447 43.113 43.4551 40.5542 43.5535 40.3081C43.7011 39.9145 43.5781 39.8653 42.2003 39.9391L40.6749 40.0129L39.3217 44.1463C38.559 46.4344 37.8947 48.2305 37.8208 48.1813C37.747 48.1075 37.1073 46.2376 36.3938 44.0233L35.0899 40.0129L33.5644 39.9391C32.162 39.8653 32.039 39.9145 32.2112 40.3081Z" fill="white"/>
<path d="M49.5566 45.5487V51.2075H53.1242H56.6917V50.1004V48.9932H54.6004H52.5091V47.763V46.5328H54.3543H56.1996V45.4257V44.3185H54.3543H52.5091V43.2114V42.1042H54.6004H56.6917V40.997V39.8899H53.1242H49.5566V45.5487Z" fill="white"/>
<path d="M83.7805 40.4315C83.6575 40.7513 82.8456 42.9902 81.9598 45.426C81.0741 47.8617 80.2376 50.1745 80.09 50.5435L79.8193 51.2324L81.3448 51.1586C82.821 51.0848 82.8456 51.0602 83.1408 50.2237L83.4361 49.3626H85.6012H87.7663L88.0615 50.2237C88.3568 51.0602 88.3814 51.0848 89.8576 51.1586L91.3584 51.2324L90.5465 48.9443C90.079 47.6895 89.1687 45.1553 88.5044 43.3347L87.2988 40.0132L85.6504 39.9394C84.125 39.8656 83.9773 39.9148 83.7805 40.4315ZM86.2409 44.7371C86.5361 45.672 86.8313 46.5577 86.9052 46.7054C86.979 46.9514 86.6345 47.0252 85.6012 47.0252C84.5678 47.0252 84.2234 46.9514 84.2972 46.7054C84.371 46.5577 84.6662 45.672 84.9615 44.7371C85.2813 43.8268 85.552 43.0886 85.6012 43.0886C85.6504 43.0886 85.921 43.8268 86.2409 44.7371Z" fill="white"/>
</g>
<defs>
<clipPath id="clip0_2895_8753">
<rect width="90.9091" height="40" fill="white" transform="translate(23.5454 12)"/>
</clipPath>
</defs>
</svg>