<?xml version="1.0" encoding="UTF-8"?><svg id="Layer_2" xmlns="http://www.w3.org/2000/svg" viewBox="0 0 7043.63 728.64"><defs><style>.cls-1{fill:#fff;}</style></defs><g id="Artwork"><g id="Logo"><g id="Text"><path class="cls-1" d="m147.12,633.41c-20.33-2.55-39.9-7.24-58.7-14.1-18.81-6.86-35.58-17.65-50.31-32.4-10.67-12.2-19.06-25.28-25.16-39.26-6.1-13.97-10.42-28.32-12.96-43.07V246.17c3.55-21.34,9.4-41.41,17.53-60.22,8.12-18.8,20.32-36.33,36.59-52.6,13.21-12.2,27.56-21.34,43.07-27.44,15.5-6.1,32.14-9.65,49.93-10.67h423.07c18.8,2.55,36.59,7.12,53.36,13.72,16.77,6.61,32.02,18.04,45.74,34.3,10.67,13.72,18.03,28.59,22.11,44.59,4.06,16.01,5.34,32.66,3.81,49.93-2.55,5.6-5.85,10.8-9.91,15.63-4.07,4.84-8.9,8.52-14.48,11.05l-23.63,2.29-20.58-12.2c-8.13-9.65-11.82-21.21-11.05-34.68.76-13.46-4.19-24.26-14.86-32.4l-26.68-12.2H147.12c-8.13,1.52-15.89,3.94-23.25,7.24-7.37,3.31-14.61,8.52-21.73,15.63-6.61,9.15-11.95,18.81-16.01,28.97-4.07,10.17-6.61,20.58-7.62,31.25v227.92c1.01,8.13,2.92,16.14,5.72,24.01,2.79,7.88,6.73,15.38,11.82,22.49,7.11,5.09,14.35,9.41,21.73,12.96,7.36,3.56,15.11,5.85,23.25,6.86h432.98l26.68-16.01c5.07-9.65,7.62-20.45,7.62-32.4s4.06-22.74,12.2-32.4c5.59-4.06,11.43-7.11,17.53-9.15,6.1-2.03,13.21-2.29,21.34-.76,5.07,2.55,10.03,5.6,14.86,9.15,4.82,3.56,8.5,7.88,11.05,12.96l3.81,30.49c-1.02,17.28-5.22,34.05-12.58,50.31-7.37,16.27-18.68,30.49-33.92,42.69-10.67,7.62-21.99,13.47-33.92,17.53-11.95,4.07-24.77,6.86-38.5,8.39H147.12Z"/><path class="cls-1" d="m786.67,633.41c-2.55-1.52-5.85-2.55-9.91-3.05-4.07-.51-7.5-2.16-10.29-4.95-2.8-2.79-5.47-5.46-8-8l-7.62-14.48v-189.05c5.59-21.34,18.29-32.27,38.11-32.78h378.85c21.34-6.6,32.78-11.94,34.3-16.01,1.52-4.06,3.55-8.39,6.1-12.96,2.54-4.57,3.81-9.27,3.81-14.1s.76-9.78,2.29-14.86c-1.52-5.59-2.55-10.79-3.05-15.63-.51-4.82-1.79-9.15-3.81-12.96-2.04-3.81-5.09-7.74-9.15-11.82-4.07-3.05-7.75-5.59-11.05-7.62-3.31-2.03-7.37-3.68-12.2-4.95-4.84-1.26-9.28-2.41-13.34-3.43h-381.14l-22.11-14.48c-2.55-2.54-4.45-5.84-5.72-9.91-1.27-4.06-1.91-8.12-1.91-12.2v-12.2c6.1-16.77,16.01-26.93,29.73-30.49h393.34c10.67,3.05,21.46,6.23,32.4,9.53,10.92,3.31,21.08,8,30.49,14.1,9.4,6.1,17.91,13.72,25.54,22.87,8.12,10.67,14.86,21.73,20.2,33.16,5.34,11.43,8.77,23.89,10.29,37.35,1.52,13.47,1.52,27.06,0,40.78-1.52,8.13-3.18,15.89-4.95,23.25-1.79,7.37-4.7,14.36-8.77,20.96-4.07,6.61-7.62,13.22-10.67,19.82,4.06,3.05,8.12,6.61,12.2,10.67,4.06,4.07,7.49,8.39,10.29,12.96,2.79,4.57,6.22,8.9,10.29,12.96,8.12,16.27,13.21,32.78,15.25,49.55,2.03,16.77,2.67,34.18,1.91,52.22-.76,18.04-1.14,35.96-1.14,53.74-4.57,20.84-18.81,31.5-42.69,32.02-20.33-5.07-32.02-16.51-35.06-34.3l-.76-52.6c2.03-39.13-3.31-63.27-16.01-72.42-3.05-2.54-6.23-4.57-9.53-6.1-3.31-1.52-6.99-2.54-11.05-3.05-4.07-.5-7.37-1.52-9.91-3.05h-362.85v141.02c-1.52,3.05-3.31,6.23-5.34,9.53-2.04,3.31-4.7,6.61-8,9.91-3.31,3.31-6.23,5.72-8.77,7.24l-20.58,3.81Z"/><path class="cls-1" d="m1419.37,633.41c-19.32-.51-32.28-10.67-38.88-30.49V217.96c4.57-14.22,10.67-22.87,18.29-25.92,7.62-3.05,13.46-4.57,17.53-4.57h12.2c18.8,5.6,28.97,15.76,30.49,30.49v384.95c-5.6,19.32-18.81,29.47-39.64,30.49Z"/><path class="cls-1" d="m1599.27,633.41c-9.66-1.52-19.19-3.93-28.59-7.24-9.41-3.3-18.17-7.62-26.3-12.96-8.13-5.34-15.51-12.07-22.11-20.2-5.09-8.12-9.66-16.51-13.72-25.16-4.07-8.64-6.99-17.65-8.77-27.06-1.79-9.4-2.17-19.44-1.14-30.11,5.59-14.73,11.94-23.5,19.06-26.3,7.11-2.79,12.7-4.19,16.77-4.19h12.2c13.72,4.07,22.11,8.77,25.16,14.1,3.05,5.34,5.34,14.1,6.86,26.3,1.52,13.22,5.07,21.86,10.67,25.92l11.43,6.1h336.93c4.06-1.01,8.5-2.54,13.34-4.57,4.82-2.03,9.27-4.44,13.34-7.24,4.06-2.79,7.87-6.22,11.43-10.29,3.05-4.06,5.21-8.12,6.48-12.2,1.26-4.06,1.91-8.77,1.91-14.1s.76-10.03,2.29-14.1c-1.52-4.06-2.67-8.77-3.43-14.1s-2.42-9.65-4.95-12.96c-2.55-3.3-5.85-6.98-9.91-11.05-2.55-2.54-5.6-4.82-9.15-6.86-3.56-2.03-6.99-3.43-10.29-4.19-3.31-.76-6.99-1.91-11.05-3.43h-314.06c-11.18-1.01-22.49-3.17-33.92-6.48-11.43-3.3-22.11-7.74-32.02-13.34-9.91-5.59-18.94-12.45-27.06-20.58-8.13-9.15-15.25-19.44-21.34-30.87s-9.66-23.25-10.67-35.45c-1.02-12.2-1.02-24.89,0-38.11,1.01-9.65,3.17-18.8,6.48-27.44,3.3-8.64,7.74-16.64,13.34-24.01,5.59-7.36,12.2-14.35,19.82-20.96,8.12-5.59,16.26-10.67,24.39-15.25,8.12-4.57,16.51-7.87,25.16-9.91,8.64-2.03,17.78-4.57,27.44-7.62h352.94c8.12,1.52,16.51,3.94,25.16,7.24,8.64,3.31,16.64,7.37,24.01,12.2,7.36,4.84,14.35,10.55,20.96,17.15,7.11,8.13,12.7,16.52,16.77,25.16,4.06,8.65,7.11,18.04,9.15,28.2,2.03,10.17,2.67,19.7,1.91,28.59-.76,8.9-5.98,17.15-15.63,24.77-2.55,2.55-5.85,4.57-9.91,6.1-4.07,1.52-8.39,2.29-12.96,2.29h-12.96c-9.66-3.55-16.77-8.12-21.34-13.72-4.57-5.59-6.86-11.43-6.86-17.53s-.76-11.82-2.29-17.15c-1.52-5.34-2.67-10.03-3.43-14.1-.76-4.06-9.03-7.36-24.77-9.91h-327.02c-5.09,1.02-10.29,2.17-15.63,3.43-5.34,1.27-10.42,3.31-15.25,6.1-4.84,2.8-9.28,6.23-13.34,10.29-2.55,2.55-4.19,5.85-4.95,9.91-.76,4.07-1.4,7.75-1.91,11.05-.51,3.31-.76,6.99-.76,11.05l9.91,22.11c4.06,3.05,7.74,5.6,11.05,7.62,3.3,2.04,6.98,3.69,11.05,4.95,4.06,1.27,8.12,2.67,12.2,4.19h312.54c13.21,1.02,25.92,3.56,38.11,7.62,12.2,4.07,23.63,9.53,34.3,16.39,10.67,6.86,20.83,15.63,30.49,26.3,8.12,10.67,14.48,21.73,19.06,33.16,4.57,11.43,7.24,23.89,8,37.35.76,13.47,1.14,26.81,1.14,40.02-2.55,10.67-5.6,21.09-9.15,31.25-3.56,10.17-8.65,19.57-15.25,28.2-6.61,8.65-14.74,17.03-24.39,25.16-7.62,7.12-16.27,12.58-25.92,16.39-9.66,3.81-19.19,6.74-28.59,8.77-9.41,2.03-19.44,3.81-30.11,5.34h-332.35Z"/><path class="cls-1" d="m2347.06,633.41c-4.07-1.52-7.75-2.55-11.05-3.05-3.31-.51-6.61-2.54-9.91-6.1-3.31-3.55-6.23-6.6-8.77-9.15l-6.1-12.2v-336.17h-214.2l-22.11-14.48c-2.55-2.54-4.45-5.84-5.72-9.91-1.27-4.06-1.91-8.12-1.91-12.2v-12.2c5.07-17.78,14.98-27.94,29.73-30.49h506.15c15.75,6.1,24.77,12.71,27.06,19.82,2.29,7.12,3.43,12.71,3.43,16.77v12.2c-5.09,15.25-15.25,25.42-30.49,30.49h-213.44v334.64c-4.57,20.84-18.81,31.5-42.69,32.02Z"/><path class="cls-1" d="m2663.41,635.69l-22.11-14.48c-2.55-2.54-4.45-5.84-5.72-9.91-1.27-4.06-1.91-8.12-1.91-12.2v-12.2l90.71-144.83,17.53-10.67h262.22v-3.81l-125.01-183.71c-6.1-21.34-2.04-37.35,12.2-48.02,2.54-2.54,5.84-4.57,9.91-6.1,4.06-1.52,8.12-2.29,12.2-2.29s7.87-.25,11.43-.76c3.55-.5,12.7,4.57,27.44,15.25l250.03,383.43c-2.55,23.38-6.1,37.1-10.67,41.16-4.57,4.06-9.03,6.6-13.34,7.62-4.32,1.01-8.9,1.52-13.72,1.52h-13.34l-22.11-14.48-68.61-110.53h-288.14l-72.42,114.34c-4.07,3.05-7.75,5.59-11.05,7.62-3.31,2.03-7.37,3.05-12.2,3.05h-13.34Z"/><path class="cls-1" d="m3268.67,633.41c-2.55-1.52-5.85-2.55-9.91-3.05-4.07-.51-7.5-2.16-10.29-4.95-2.8-2.79-5.47-5.46-8-8l-7.62-14.48V217.96c6.1-13.72,10.54-21.46,13.34-23.25,2.79-1.78,6.22-3.43,10.29-4.95,4.06-1.52,8.12-2.29,12.2-2.29h12.2c18.8,5.6,28.97,15.76,30.49,30.49v334.64h455.84c13.21,5.6,20.45,9.66,21.73,12.2,1.26,2.55,2.92,5.85,4.95,9.91,2.03,4.07,3.43,8.13,4.19,12.2.76,4.07,1.14,8.9,1.14,14.48-5.6,18.81-17.79,29.47-36.59,32.02h-493.96Z"/><path class="cls-1" d="m3865.53,633.41c-10.67-1.52-20.08-6.86-28.2-16.01l-7.62-14.48v-234.02c5.59-18.8,16.77-28.71,33.54-29.73h506.15c21.84-3.05,40.14-13.21,54.88-30.49,8.12-10.67,12.7-22.87,13.72-36.59v-29.73c-1.02-17.78-8.9-33.28-23.63-46.5-13.72-10.67-29.23-17.53-46.5-20.58h-504.63c-16.77-4.57-27.95-14.48-33.54-29.73v-20.58c6.6-17.78,18.55-27.69,35.83-29.73h498.53c45.74,2.55,85.38,21.34,118.92,56.41,21.34,26.94,33.28,57.68,35.83,92.24v26.68c-2.55,44.21-21.34,81.83-56.41,112.82-29.48,20.33-61.74,32.53-96.81,36.59h-457.37v182.95c-4.07,10.67-11.43,19.57-22.11,26.68l-20.58,3.81Z"/><path class="cls-1" d="m5308.75,633.41c-2.55-1.52-5.85-2.55-9.91-3.05-4.07-.51-7.5-2.16-10.29-4.95-2.8-2.79-5.47-5.46-8-8l-7.62-14.48V217.96c5.59-15.25,11.94-24.13,19.06-26.68,7.11-2.54,12.7-3.81,16.77-3.81h12.2c16.77,4.57,26.93,14.74,30.49,30.49v384.95c-1.52,3.05-3.31,6.23-5.34,9.53-2.04,3.31-4.7,6.61-8,9.91-3.31,3.31-6.23,5.72-8.77,7.24l-20.58,3.81Zm480.24-1.52l-379.62-204.29c-20.84-19.82-21.09-40.4-.76-61.74l372.76-175.32c20.83-5.59,35.06-4.44,42.69,3.43,7.62,7.88,12.07,13.85,13.34,17.91,1.26,4.07,2.16,9.91,2.67,17.53.5,7.62-3.81,16.52-12.96,26.68l-302.63,143.31,306.44,164.65c11.68,14.74,13.21,31,4.57,48.79-8.13,13.22-23.63,19.56-46.5,19.06Z"/><path class="cls-1" d="m5908.66,266.75l-22.11-14.48c-2.55-2.54-4.45-5.84-5.72-9.91-1.27-4.06-1.91-8.12-1.91-12.2v-12.2c5.07-17.78,14.98-27.94,29.73-30.49h506.15c12.7,5.6,20.32,10.04,22.87,13.34,2.54,3.31,4.44,6.99,5.72,11.05,1.26,4.07,1.91,8.13,1.91,12.2v12.2c-5.09,15.25-15.25,25.42-30.49,30.49h-506.15Zm6.1,366.66c-2.55-1.52-5.85-2.55-9.91-3.05-4.07-.51-7.5-2.16-10.29-4.95-2.8-2.79-5.47-5.46-8-8l-7.62-14.48v-215.73c5.59-19.82,17.53-29.73,35.83-29.73h445.93c2.54,1.02,5.84,1.91,9.91,2.67,4.06.76,7.49,2.42,10.29,4.95,2.79,2.55,5.46,5.34,8,8.39,2.54,2.55,4.19,5.47,4.95,8.77.76,3.31,1.39,6.99,1.91,11.05.5,4.07.76,8.13.76,12.2-5.6,17.28-17.03,27.95-34.3,32.02h-404.77v115.1h455.84c11.17,3.56,17.91,7.12,20.2,10.67,2.29,3.56,4.44,7.37,6.48,11.43,2.03,4.07,3.43,8.13,4.19,12.2.76,4.07,1.14,8.9,1.14,14.48-5.6,17.79-17.79,28.45-36.59,32.02h-493.96Z"/><path class="cls-1" d="m6511.63,633.41c-2.55-1.52-5.85-2.55-9.91-3.05-4.07-.51-7.5-2.16-10.29-4.95-2.8-2.79-5.47-5.46-8-8l-7.62-14.48v-189.05c5.59-21.34,18.29-32.27,38.11-32.78h378.85c21.34-6.6,32.78-11.94,34.3-16.01,1.52-4.06,3.55-8.39,6.1-12.96,2.54-4.57,3.81-9.27,3.81-14.1s.76-9.78,2.29-14.86c-1.52-5.59-2.55-10.79-3.05-15.63-.51-4.82-1.79-9.15-3.81-12.96-2.04-3.81-5.09-7.74-9.15-11.82-4.07-3.05-7.75-5.59-11.05-7.62-3.31-2.03-7.37-3.68-12.2-4.95-4.84-1.26-9.28-2.41-13.34-3.43h-381.14l-22.11-14.48c-2.55-2.54-4.45-5.84-5.72-9.91-1.27-4.06-1.91-8.12-1.91-12.2v-12.2c6.1-16.77,16.01-26.93,29.73-30.49h393.34c10.67,3.05,21.46,6.23,32.4,9.53,10.92,3.31,21.08,8,30.49,14.1,9.4,6.1,17.91,13.72,25.54,22.87,8.12,10.67,14.86,21.73,20.2,33.16,5.34,11.43,8.77,23.89,10.29,37.35,1.52,13.47,1.52,27.06,0,40.78-1.52,8.13-3.18,15.89-4.95,23.25-1.79,7.37-4.7,14.36-8.77,20.96-4.07,6.61-7.62,13.22-10.67,19.82,4.06,3.05,8.12,6.61,12.2,10.67,4.06,4.07,7.49,8.39,10.29,12.96,2.79,4.57,6.22,8.9,10.29,12.96,8.12,16.27,13.21,32.78,15.25,49.55,2.03,16.77,2.67,34.18,1.91,52.22-.76,18.04-1.14,35.96-1.14,53.74-4.57,20.84-18.81,31.5-42.69,32.02-20.33-5.07-32.02-16.51-35.06-34.3l-.76-52.6c2.03-39.13-3.31-63.27-16.01-72.42-3.05-2.54-6.23-4.57-9.53-6.1-3.31-1.52-6.99-2.54-11.05-3.05-4.07-.5-7.37-1.52-9.91-3.05h-362.85v141.02c-1.52,3.05-3.31,6.23-5.34,9.53-2.04,3.31-4.7,6.61-8,9.91-3.31,3.31-6.23,5.72-8.77,7.24l-20.58,3.81Z"/></g><g id="Icon"><path class="cls-1" d="m4614.86,273.46l.11.11c2.34-2.45,4.68-4.91,7.14-7.47l-7.25,7.36Zm20.74,30.33l67.24,98.46h.11l-67.35-98.46Zm112.07,94.45h.11l132.81-315.58-132.92,315.58Z"/><path class="cls-1" d="m5206.54,370.36c-8.25-28.77-21.97-54.08-40.59-75.27-6.02-6.8-12.49-13.94-19.74-21.52-.78-.89-1.56-1.78-2.45-2.68-.89-.89-1.78-1.9-2.68-2.79-.89-1-1.9-2.01-2.9-3.01l-.22-.22-1.78-1.78c-37.47-38.69-83.3-80.73-123.67-117.87-52.08-47.62-105.82-97.01-115.86-116.42,0-.11-.11-.11-.11-.22l-15.95-28.58-15.95,28.58-.11.11c-9.81,19.4-63.67,68.8-115.75,116.53-40.48,37.13-86.31,79.17-123.78,117.87l-2.9,3.01c-2.45,2.56-4.79,5.02-7.14,7.47-7.14,7.58-13.6,14.61-19.63,21.41-18.73,21.3-32.45,46.61-40.7,75.27-17.62,61-8.47,128.24,24.42,179.98l2.68,4.13c3.12,4.68,6.47,9.14,9.81,13.38.22.22.33.45.56.67,2.34,2.9,4.91,5.8,7.36,8.36,27.1,29.44,62.56,47.95,102.81,53.75,11.49,1.67,22.41,2.45,32.67,2.45,48.84,0,83.52-17.28,106.94-36.58-10.04,25.98-25.2,46.39-44.94,60.44-22.64,16.06-51.85,24.2-86.76,24.2h-17.84v47.62h376.57v-47.62h-17.84c-35.01,0-64.23-8.14-86.87-24.2-19.63-13.94-34.79-34.23-44.83-60.33,23.42,19.18,57.99,36.46,106.83,36.46,10.37,0,21.19-.78,32.78-2.45,40.14-5.8,75.72-24.31,102.59-53.53,2.57-2.79,5.13-5.8,7.58-8.59.11-.22.33-.33.45-.56,3.46-4.35,6.8-8.92,9.92-13.49l2.68-4.13c32.9-51.74,42.04-119.09,24.31-179.87Zm-218.23-198.82c36.46,33.45,77.39,70.92,112.07,105.94l-61.22,89.54-102.48-243.32c15.05,14.16,32.34,30.11,51.63,47.84Zm-107.72-88.87l90.55,214.99,42.37,100.58-132.92,100.02-132.81-100.02h-.11l132.92-315.58Zm-107.72,88.87c19.4-17.73,36.58-33.68,51.74-47.84l-102.48,243.43-61.33-89.66c34.79-35.01,75.6-72.48,112.07-105.94Zm-174.74,339.22c-17.95-39.59-21.63-87.76-9.26-130.58,6.91-23.53,18.06-44.27,33.23-61.55,4.24-4.79,8.7-9.7,13.49-14.83l67.35,98.46v.11l-63.56,65.68-41.26,42.71Zm109.17,84.41c-32.34-4.57-59.77-18.96-81.74-42.71-2.23-2.34-4.24-4.68-6.24-7.14-.78-1-1.45-1.9-2.23-2.79l106.6-110.4,95.56,136.82c-28.99,23.98-66.57,32.78-111.96,26.2Zm236.18,90.77c3.57,2.45,7.25,4.91,11.04,7.03h-147.86c3.79-2.23,7.47-4.57,11.04-7.03,18.96-13.49,34.46-31.22,46.5-52.74l16.39,23.53,16.5-23.64c11.93,21.63,27.54,39.36,46.39,52.86Zm-37.8-127.23l-.11-.22-24.98,35.91-14.72-21.08-10.37-14.83v-.11l-50.74-72.48,75.83,57.09,75.94-57.09-50.85,72.82Zm236.18-13.38c-1.9,2.45-3.9,4.79-6.36,7.36-21.74,23.53-49.18,37.91-81.51,42.49-45.38,6.58-82.96-2.23-112.07-26.2l95.68-136.82,46.5,48.17,12.49,12.94,6.24,6.47,3.68,3.79,37.58,39.03c-.67.89-1.45,1.9-2.23,2.79Zm21.19-34.57l-104.71-108.5,67.35-98.46c4.79,5.13,9.26,10.15,13.38,14.83,15.28,17.28,26.43,38.03,33.23,61.67,12.38,42.71,8.7,90.88-9.26,130.47Z"/></g></g></g></svg>